<svg width="29" height="29" viewBox="0 0 29 29" fill="none" xmlns="http://www.w3.org/2000/svg">
<g clip-path="url(#clip0_458_20)">
<path fill-rule="evenodd" clip-rule="evenodd" d="M23.771 18.0585C23.771 17.6464 23.6073 17.2513 23.316 16.9599C23.0246 16.6686 22.6295 16.5049 22.2174 16.5049C21.8054 16.5049 21.4102 16.6686 21.1189 16.9599C20.8275 17.2513 20.6639 17.6464 20.6639 18.0585V20.9129H17.8094C17.3974 20.9129 17.0022 21.0766 16.7109 21.3679C16.4195 21.6593 16.2559 22.0544 16.2559 22.4665C16.2559 22.8785 16.4195 23.2736 16.7109 23.565C17.0022 23.8563 17.3974 24.02 17.8094 24.02H20.6639V26.8745C20.6639 27.2865 20.8275 27.6816 21.1189 27.973C21.4102 28.2643 21.8054 28.428 22.2174 28.428C22.6295 28.428 23.0246 28.2643 23.316 27.973C23.6073 27.6816 23.771 27.2865 23.771 26.8745V24.02H26.6254C27.0375 24.02 27.4326 23.8563 27.724 23.565C28.0153 23.2736 28.179 22.8785 28.179 22.4665C28.179 22.0544 28.0153 21.6593 27.724 21.3679C27.4326 21.0766 27.0375 20.9129 26.6254 20.9129H23.771V18.0585Z" fill="url(#paint0_linear_458_20)"/>
<g filter="url(#filter0_i_458_20)">
<path fill-rule="evenodd" clip-rule="evenodd" d="M6.78105 0.517578C5.8282 0.517578 4.90848 0.604578 4.04677 0.699864C3.252 0.790804 2.51169 1.14902 1.94717 1.7158C1.38265 2.28258 1.02739 3.02431 0.939625 3.81944C0.846411 4.67494 0.765625 5.59051 0.765625 6.53301C0.765625 7.47551 0.848482 8.38901 0.939625 9.24658C1.02783 10.0413 1.38328 10.7826 1.94776 11.3489C2.51225 11.9153 3.25231 12.2732 4.04677 12.3641C4.90848 12.4614 5.8282 12.5484 6.78105 12.5484C7.73391 12.5484 8.65363 12.4614 9.51534 12.3641C10.3098 12.2732 11.0499 11.9153 11.6143 11.3489C12.1788 10.7826 12.5343 10.0413 12.6225 9.24658C12.7157 8.38901 12.7965 7.47551 12.7965 6.53301C12.7965 5.59051 12.7136 4.67494 12.6225 3.81944C12.5347 3.02431 12.1795 2.28258 11.6149 1.7158C11.0504 1.14902 10.3101 0.790804 9.51534 0.699864C8.60801 0.58832 7.69516 0.527463 6.78105 0.517578ZM6.78105 16.451C5.8282 16.451 4.90848 16.538 4.04677 16.6354C3.25231 16.7262 2.51225 17.0841 1.94776 17.6505C1.38328 18.2169 1.02783 18.9581 0.939625 19.7529C0.846411 20.6104 0.765625 21.5239 0.765625 22.4664C0.765625 23.411 0.848482 24.3245 0.939625 25.18C1.02739 25.9751 1.38265 26.7169 1.94717 27.2836C2.51169 27.8504 3.252 28.2086 4.04677 28.2996C4.90848 28.3949 5.8282 28.4819 6.78105 28.4819C7.73391 28.4819 8.65363 28.3949 9.51534 28.2996C10.3098 28.2087 11.0499 27.8508 11.6143 27.2844C12.1788 26.7181 12.5343 25.9768 12.6225 25.1821C12.7157 24.3245 12.7965 23.411 12.7965 22.4685C12.7965 21.5239 12.7136 20.6104 12.6225 19.7529C12.5343 18.9581 12.1788 18.2169 11.6143 17.6505C11.0499 17.0841 10.3098 16.7262 9.51534 16.6354C8.65363 16.538 7.73391 16.451 6.78105 16.451ZM19.4831 0.699864C20.3448 0.604578 21.2645 0.517578 22.2173 0.517578C23.1702 0.517578 24.0899 0.604578 24.9516 0.699864C25.7464 0.790804 26.4867 1.14902 27.0512 1.7158C27.6157 2.28258 27.971 3.02431 28.0588 3.81944C28.152 4.67494 28.2328 5.59051 28.2328 6.53301C28.2328 7.47551 28.1499 8.38901 28.0588 9.24658C27.9706 10.0413 27.6151 10.7826 27.0506 11.3489C26.4861 11.9153 25.7461 12.2732 24.9516 12.3641C24.0899 12.4614 23.1702 12.5484 22.2173 12.5484C21.2645 12.5484 20.3448 12.4614 19.4831 12.3641C18.6886 12.2732 17.9485 11.9153 17.3841 11.3489C16.8196 10.7826 16.4641 10.0413 16.3759 9.24658C16.2696 8.34581 16.2115 7.43999 16.2019 6.53301C16.2019 5.59051 16.2848 4.67494 16.3759 3.81944C16.4637 3.02431 16.8189 2.28258 17.3835 1.7158C17.948 1.14902 18.6883 0.790804 19.4831 0.699864Z" fill="white"/>
</g>
</g>
<defs>
<filter id="filter0_i_458_20" x="0.765625" y="-0.482422" width="27.4668" height="28.9639" filterUnits="userSpaceOnUse" color-interpolation-filters="sRGB">
<feFlood flood-opacity="0" result="BackgroundImageFix"/>
<feBlend mode="normal" in="SourceGraphic" in2="BackgroundImageFix" result="shape"/>
<feColorMatrix in="SourceAlpha" type="matrix" values="0 0 0 0 0 0 0 0 0 0 0 0 0 0 0 0 0 0 127 0" result="hardAlpha"/>
<feOffset dy="-1"/>
<feGaussianBlur stdDeviation="2"/>
<feComposite in2="hardAlpha" operator="arithmetic" k2="-1" k3="1"/>
<feColorMatrix type="matrix" values="0 0 0 0 0 0 0 0 0 0 0 0 0 0 0 0 0 0 0.25 0"/>
<feBlend mode="normal" in2="shape" result="effect1_innerShadow_458_20"/>
</filter>
<linearGradient id="paint0_linear_458_20" x1="22.2174" y1="16.5049" x2="22.2174" y2="28.428" gradientUnits="userSpaceOnUse">
<stop stop-color="#808080"/>
<stop offset="1" stop-color="#646464"/>
</linearGradient>
<clipPath id="clip0_458_20">
<rect width="29" height="29" fill="white"/>
</clipPath>
</defs>
</svg>
