<svg width="24" height="24" viewBox="0 0 24 24" fill="none" xmlns="http://www.w3.org/2000/svg">
<g clip-path="url(#clip0_479_67)">
<path fill-rule="evenodd" clip-rule="evenodd" d="M13.2859 7.46247C13.2859 7.12148 13.1505 6.79445 12.9094 6.55334C12.6683 6.31222 12.3412 6.17676 12.0002 6.17676C11.6592 6.17676 11.3322 6.31222 11.0911 6.55334C10.85 6.79445 10.7145 7.12148 10.7145 7.46247V10.651H7.52595C7.18496 10.651 6.85793 10.7865 6.61681 11.0276C6.37569 11.2687 6.24023 11.5958 6.24023 11.9368C6.24023 12.2778 6.37569 12.6048 6.61681 12.8459C6.85793 13.087 7.18496 13.2225 7.52595 13.2225H10.7145V16.411C10.7145 16.752 10.85 17.0791 11.0911 17.3202C11.3322 17.5613 11.6592 17.6968 12.0002 17.6968C12.3412 17.6968 12.6683 17.5613 12.9094 17.3202C13.1505 17.0791 13.2859 16.752 13.2859 16.411V13.2225H16.4745C16.8155 13.2225 17.1425 13.087 17.3837 12.8459C17.6248 12.6048 17.7602 12.2778 17.7602 11.9368C17.7602 11.5958 17.6248 11.2687 17.3837 11.0276C17.1425 10.7865 16.8155 10.651 16.4745 10.651H13.2859V7.46247Z" fill="#202020"/>
<path fill-rule="evenodd" clip-rule="evenodd" d="M10.3885 3.14894C10.5589 3.13313 10.7244 3.08346 10.8754 3.00285C11.0263 2.92225 11.1597 2.81231 11.2676 2.6795C11.3755 2.5467 11.4558 2.39368 11.5038 2.22943C11.5518 2.06518 11.5666 1.893 11.5472 1.72298C11.5278 1.55295 11.4746 1.38852 11.3908 1.2393C11.3071 1.09009 11.1944 0.959095 11.0593 0.854007C10.9242 0.748919 10.7696 0.671848 10.6043 0.627313C10.4391 0.582777 10.2667 0.571674 10.0971 0.594652C8.78541 0.729651 7.50363 1.07281 6.29995 1.61122C5.98987 1.7533 5.74894 2.01274 5.63015 2.33246C5.51136 2.65219 5.52444 3.006 5.66652 3.31608C5.8086 3.62616 6.06804 3.86709 6.38776 3.98588C6.70748 4.10467 7.0613 4.09159 7.37138 3.94951C8.22852 3.55522 9.23309 3.28094 10.3885 3.14894ZM14.5405 0.680366C14.3737 0.654027 14.2033 0.660802 14.0391 0.700306C13.8749 0.739809 13.7201 0.811267 13.5835 0.910599C13.447 1.00993 13.3313 1.13519 13.2431 1.27923C13.1549 1.42327 13.096 1.58326 13.0697 1.75008C13.0433 1.9169 13.0501 2.08727 13.0896 2.25147C13.1291 2.41566 13.2006 2.57047 13.2999 2.70705C13.3992 2.84364 13.5245 2.95932 13.6685 3.04749C13.8126 3.13566 13.9726 3.1946 14.1394 3.22094C16.4142 3.58094 18.0719 4.52722 19.1742 5.92779C20.2885 7.34037 20.9382 9.34608 20.9382 11.9998C20.9382 15.0341 20.0879 17.2249 18.6565 18.6564C17.2251 20.0878 15.0342 20.9364 11.9999 20.9364C8.41195 20.9364 5.99481 19.7552 4.60452 17.7769C4.40487 17.5074 4.10783 17.3266 3.77675 17.2731C3.44566 17.2195 3.10676 17.2974 2.83233 17.4902C2.5579 17.683 2.36966 17.9754 2.30778 18.3051C2.2459 18.6347 2.31527 18.9755 2.50109 19.2547C4.50509 22.1072 7.83252 23.5095 11.9982 23.5095C15.5074 23.5095 18.4302 22.5187 20.4754 20.4752C22.5188 18.4301 23.5097 15.5072 23.5097 11.9998C23.5097 8.93637 22.7554 6.31865 21.1954 4.33694C19.6234 2.34151 17.3382 1.12265 14.5405 0.680366ZM3.06166 11.9998C3.06166 11.831 3.02841 11.6638 2.96379 11.5078C2.89918 11.3518 2.80448 11.21 2.68509 11.0907C2.5657 10.9713 2.42396 10.8766 2.26797 10.8119C2.11198 10.7473 1.94479 10.7141 1.77595 10.7141C1.60711 10.7141 1.43992 10.7473 1.28393 10.8119C1.12794 10.8766 0.986201 10.9713 0.866811 11.0907C0.747422 11.21 0.652717 11.3518 0.588104 11.5078C0.52349 11.6638 0.490234 11.831 0.490234 11.9998C0.490234 13.2907 0.623949 14.4992 0.894806 15.6152C0.934653 15.7793 1.00643 15.934 1.10605 16.0704C1.20567 16.2067 1.33117 16.3222 1.4754 16.41C1.61962 16.4979 1.77974 16.5565 1.94661 16.5825C2.11348 16.6085 2.28383 16.6014 2.44795 16.5615C2.61206 16.5217 2.76672 16.4499 2.9031 16.3503C3.03947 16.2506 3.15489 16.1251 3.24276 15.9809C3.33063 15.8367 3.38923 15.6766 3.41522 15.5097C3.44121 15.3428 3.43408 15.1725 3.39423 15.0084C3.16456 14.0222 3.05292 13.0123 3.06166 11.9998ZM4.57709 4.15351C4.84561 4.36323 5.01991 4.67096 5.06169 5.00911C5.10348 5.34725 5.00934 5.68816 4.79995 5.95694C4.16759 6.78963 3.70935 7.7411 3.45252 8.75465C3.40873 8.91775 3.33325 9.07063 3.23038 9.20456C3.12751 9.33849 2.99927 9.45085 2.85298 9.53522C2.70669 9.61959 2.54521 9.67432 2.37777 9.69628C2.21032 9.71824 2.04019 9.70701 1.87709 9.66322C1.71399 9.61944 1.56111 9.54395 1.42718 9.44108C1.29325 9.33821 1.18089 9.20997 1.09652 9.06368C0.926134 8.76823 0.880089 8.41719 0.96852 8.08779C1.31426 6.74292 1.92699 5.48133 2.77023 4.37808C2.87397 4.24475 3.00297 4.13316 3.14985 4.04971C3.29673 3.96625 3.45862 3.91257 3.62627 3.89171C3.79391 3.87085 3.96402 3.88324 4.12687 3.92816C4.28973 3.97308 4.44213 4.04966 4.57538 4.15351H4.57709Z" fill="#202020" fill-opacity="0.5"/>
</g>
<defs>
<clipPath id="clip0_479_67">
<rect width="24" height="24" fill="white"/>
</clipPath>
</defs>
</svg>
