<svg width="26" height="26" viewBox="0 0 26 26" fill="none" xmlns="http://www.w3.org/2000/svg">
<path fill-rule="evenodd" clip-rule="evenodd" d="M3.82844 0.519028C2.44188 0.357799 1.39747 1.24097 1.12338 2.41794C0.203664 6.31269 0.203664 10.3681 1.12338 14.2629C1.32044 15.1245 2.07284 16.0686 3.25698 16.1797C5.15589 16.3893 7.63881 17.4785 9.29767 18.4423C9.56101 18.5945 9.6882 18.7199 9.86197 18.8901C9.94259 18.969 10.0339 19.0603 10.1558 19.1678C10.3027 19.2986 10.4872 19.4419 10.7219 19.5565L10.7487 19.544V13.6592C10.7487 12.4714 11.2206 11.3322 12.0605 10.4923C12.9004 9.65243 14.0395 9.18058 15.2273 9.18058C16.4151 9.18058 17.5542 9.65243 18.3941 10.4923C19.234 11.3322 19.7059 12.4714 19.7059 13.6592V16.3069C19.9746 16.2496 20.2361 16.2066 20.4869 16.1797C21.6729 16.0686 22.4253 15.1245 22.6223 14.2629C23.5359 10.2805 23.5485 6.40566 22.6223 2.41794C22.35 1.24276 21.3038 0.357799 19.9173 0.519028H19.8993C17.386 0.857608 15.0195 1.70854 13.0238 2.9912C12.3252 3.44264 11.4151 3.44264 10.7165 2.9912C8.72262 1.70854 6.35794 0.857608 3.84636 0.519028H3.82844Z" fill="url(#paint0_linear_369_26)"/>
<g filter="url(#filter0_i_369_26)">
<path d="M3.82844 0.519028C2.44188 0.357799 1.39747 1.24097 1.12338 2.41794C0.203664 6.31269 0.203664 10.3681 1.12338 14.2629C1.32044 15.1245 2.07284 16.0686 3.25698 16.1797C5.15589 16.3893 7.63881 17.4785 9.29767 18.4423C9.56101 18.5945 9.68821 18.7199 9.86197 18.8901C9.94259 18.969 10.034 19.0603 10.1558 19.1678C10.3098 19.3039 10.5015 19.4544 10.7523 19.5709V3.01449C8.7495 1.71749 6.37227 0.857608 3.84636 0.519028L3.82844 0.515445V0.519028Z" fill="white"/>
</g>
<path d="M12.984 13.6592V20.9969L12.0883 21.3803C11.0314 21.8335 10.3399 22.6988 10.0586 23.6733C9.9189 24.157 10.3345 24.5798 10.8397 24.5798H23.8043C24.27 24.5798 24.6677 24.2215 24.6355 23.7557C24.4169 20.4738 21.1995 18.3599 17.4626 18.3599V13.6592C17.4626 13.0653 17.2267 12.4957 16.8067 12.0758C16.3868 11.6558 15.8172 11.4199 15.2233 11.4199C14.6294 11.4199 14.0599 11.6558 13.6399 12.0758C13.22 12.4957 12.984 13.0653 12.984 13.6592Z" fill="url(#paint1_linear_369_26)"/>
<g filter="url(#filter1_i_369_26)">
<path fill-rule="evenodd" clip-rule="evenodd" d="M12.9902 9.7771V3.01446C14.9931 1.71746 17.3703 0.857576 19.8962 0.518996H19.9141C21.3007 0.357768 22.3469 1.24273 22.6192 2.41791C23.5453 6.40563 23.5328 10.2823 22.6192 14.2628C22.4221 15.1245 21.6697 16.0686 20.4838 16.1797C20.233 16.2065 19.9714 16.2513 19.7027 16.3051V13.6591C19.7028 12.8735 19.4962 12.1016 19.1036 11.4211C18.7111 10.7405 18.1464 10.1752 17.4663 9.78184C16.7862 9.38851 16.0145 9.18102 15.2289 9.18018C14.4432 9.17935 13.6712 9.38521 12.9902 9.7771Z" fill="white"/>
</g>
<defs>
<filter id="filter0_i_369_26" x="0.433594" y="-0.5" width="10.3184" height="20.0713" filterUnits="userSpaceOnUse" color-interpolation-filters="sRGB">
<feFlood flood-opacity="0" result="BackgroundImageFix"/>
<feBlend mode="normal" in="SourceGraphic" in2="BackgroundImageFix" result="shape"/>
<feColorMatrix in="SourceAlpha" type="matrix" values="0 0 0 0 0 0 0 0 0 0 0 0 0 0 0 0 0 0 127 0" result="hardAlpha"/>
<feOffset dy="-1"/>
<feGaussianBlur stdDeviation="2"/>
<feComposite in2="hardAlpha" operator="arithmetic" k2="-1" k3="1"/>
<feColorMatrix type="matrix" values="0 0 0 0 0 0 0 0 0 0 0 0 0 0 0 0 0 0 0.25 0"/>
<feBlend mode="normal" in2="shape" result="effect1_innerShadow_369_26"/>
</filter>
<filter id="filter1_i_369_26" x="12.9902" y="-0.5" width="10.3184" height="16.8047" filterUnits="userSpaceOnUse" color-interpolation-filters="sRGB">
<feFlood flood-opacity="0" result="BackgroundImageFix"/>
<feBlend mode="normal" in="SourceGraphic" in2="BackgroundImageFix" result="shape"/>
<feColorMatrix in="SourceAlpha" type="matrix" values="0 0 0 0 0 0 0 0 0 0 0 0 0 0 0 0 0 0 127 0" result="hardAlpha"/>
<feOffset dy="-1"/>
<feGaussianBlur stdDeviation="2"/>
<feComposite in2="hardAlpha" operator="arithmetic" k2="-1" k3="1"/>
<feColorMatrix type="matrix" values="0 0 0 0 0 0 0 0 0 0 0 0 0 0 0 0 0 0 0.25 0"/>
<feBlend mode="normal" in2="shape" result="effect1_innerShadow_369_26"/>
</filter>
<linearGradient id="paint0_linear_369_26" x1="11.8729" y1="0.5" x2="11.8729" y2="19.5565" gradientUnits="userSpaceOnUse">
<stop stop-color="#808080"/>
<stop offset="1" stop-color="#646464"/>
</linearGradient>
<linearGradient id="paint1_linear_369_26" x1="17.3343" y1="11.4199" x2="17.3343" y2="24.5798" gradientUnits="userSpaceOnUse">
<stop stop-color="#808080"/>
<stop offset="1" stop-color="#646464"/>
</linearGradient>
</defs>
</svg>
