<svg width="24" height="26" viewBox="0 0 24 26" fill="none" xmlns="http://www.w3.org/2000/svg">
<g filter="url(#filter0_i_369_33)">
<path d="M11.7832 0C13.8026 0.00254059 15.8211 0.0977575 17.832 0.286133C18.1948 0.316198 18.5429 0.44571 18.8398 0.660156C19.1368 0.874711 19.3717 1.16698 19.5195 1.50586C19.8939 2.34738 20.2999 3.17448 20.7363 3.98438C21.3983 5.24871 22.0814 7.28766 22.5889 8.81445C22.7416 9.06124 22.8487 9.34447 22.8936 9.65039C23.1996 11.7488 23.5664 13.9362 23.5664 16.1875C23.5664 18.4371 23.1996 20.6251 22.8916 22.7236C22.7528 23.6857 22.0112 24.4255 21.1045 24.499C18.1238 24.7449 15.0006 25.083 11.7842 25.083C8.56591 25.083 5.44447 24.7449 2.46191 24.499C1.55521 24.4255 0.813584 23.6838 0.672852 22.7236C0.366796 20.6251 0 18.4371 0 16.1875C1.8985e-05 13.9362 0.364969 11.7488 0.674805 9.65039C0.718132 9.34998 0.819289 9.07046 0.966797 8.82715C1.45792 7.21877 2.22319 5.00648 2.96582 3.57031C3.33841 2.85595 3.70613 2.14901 4.0293 1.44238C4.18084 1.11971 4.41263 0.843112 4.70215 0.640625C4.99172 0.438135 5.32854 0.316231 5.67871 0.288086C7.69944 0.115786 9.37088 0 11.7832 0Z" fill="#FFF4EC"/>
</g>
<path fill-rule="evenodd" clip-rule="evenodd" d="M13.8105 19.9766C13.8105 19.3087 14.3428 18.7666 14.9986 18.7666H18.8405C19.1556 18.7666 19.4578 18.8941 19.6806 19.121C19.9034 19.3479 20.0286 19.6557 20.0286 19.9766C20.0286 20.2975 19.9034 20.6052 19.6806 20.8322C19.4578 21.0591 19.1556 21.1865 18.8405 21.1865H15.0005C14.8444 21.1868 14.6897 21.1557 14.5453 21.095C14.4009 21.0343 14.2697 20.9452 14.1592 20.8328C14.0487 20.7205 13.961 20.587 13.9012 20.4401C13.8413 20.2931 13.8105 20.1356 13.8105 19.9766Z" fill="url(#paint0_linear_369_33)"/>
<path fill-rule="evenodd" clip-rule="evenodd" d="M10.5967 7.51641L10.5948 7.45252V0.010725C8.78315 0.0455721 7.35172 0.148178 5.67697 0.289502C5.32709 0.317955 4.99068 0.439515 4.70143 0.642012C4.41218 0.844509 4.18024 1.12084 4.02883 1.44333C3.70567 2.14995 3.33878 2.85657 2.96619 3.57288C2.21531 5.0229 1.44162 7.27054 0.951172 8.88126C1.27434 8.39727 1.82562 8.06429 2.46054 8.01782L4.1562 7.89005C6.24536 7.72743 8.39535 7.56094 10.5967 7.51641ZM12.9691 7.51641C15.1685 7.56287 17.3185 7.72937 19.4076 7.89005L21.1033 8.01782C21.7363 8.06429 22.2876 8.3934 22.6108 8.87739L22.6089 8.86771C22.0975 7.33637 21.4075 5.26296 20.7364 3.9833C20.2999 3.17345 19.8941 2.34684 19.5198 1.50528C19.372 1.16625 19.1373 0.874053 18.8402 0.659422C18.5431 0.444792 18.1948 0.315667 17.8317 0.28563C16.2151 0.13621 14.5939 0.0438739 12.971 0.00878906V7.45059L12.9691 7.51641Z" fill="url(#paint1_linear_369_33)"/>
<defs>
<filter id="filter0_i_369_33" x="0" y="-1" width="23.5664" height="26.083" filterUnits="userSpaceOnUse" color-interpolation-filters="sRGB">
<feFlood flood-opacity="0" result="BackgroundImageFix"/>
<feBlend mode="normal" in="SourceGraphic" in2="BackgroundImageFix" result="shape"/>
<feColorMatrix in="SourceAlpha" type="matrix" values="0 0 0 0 0 0 0 0 0 0 0 0 0 0 0 0 0 0 127 0" result="hardAlpha"/>
<feOffset dy="-1"/>
<feGaussianBlur stdDeviation="2"/>
<feComposite in2="hardAlpha" operator="arithmetic" k2="-1" k3="1"/>
<feColorMatrix type="matrix" values="0 0 0 0 0.471154 0 0 0 0 0.26593 0 0 0 0 0.129114 0 0 0 0.25 0"/>
<feBlend mode="normal" in2="shape" result="effect1_innerShadow_369_33"/>
</filter>
<linearGradient id="paint0_linear_369_33" x1="16.9196" y1="18.7666" x2="16.9196" y2="21.1865" gradientUnits="userSpaceOnUse">
<stop stop-color="#EA843A"/>
<stop offset="1" stop-color="#CF702A"/>
</linearGradient>
<linearGradient id="paint1_linear_369_33" x1="11.781" y1="0.00878906" x2="11.781" y2="8.88126" gradientUnits="userSpaceOnUse">
<stop stop-color="#EA843A"/>
<stop offset="1" stop-color="#CF702A"/>
</linearGradient>
</defs>
</svg>
