<svg width="24" height="24" viewBox="0 0 24 24" fill="none" xmlns="http://www.w3.org/2000/svg">
<g clip-path="url(#clip0_395_46)">
<g filter="url(#filter0_i_395_46)">
<path fill-rule="evenodd" clip-rule="evenodd" d="M11.9992 0.428711C10.4796 0.428711 8.97488 0.728015 7.57097 1.30953C6.16706 1.89105 4.89143 2.7434 3.81693 3.8179C2.74242 4.89241 1.89008 6.16804 1.30856 7.57195C0.727038 8.97586 0.427734 10.4806 0.427734 12.0001C0.427734 13.5197 0.727038 15.0244 1.30856 16.4283C1.89008 17.8322 2.74242 19.1079 3.81693 20.1824C4.89143 21.2569 6.16706 22.1092 7.57097 22.6907C8.97488 23.2723 10.4796 23.5716 11.9992 23.5716C15.0681 23.5716 18.0113 22.3524 20.1814 20.1824C22.3515 18.0123 23.5706 15.0691 23.5706 12.0001C23.5706 8.93121 22.3515 5.98797 20.1814 3.8179C18.0113 1.64784 15.0681 0.428711 11.9992 0.428711Z" fill="#FFF4EC"/>
</g>
<path fill-rule="evenodd" clip-rule="evenodd" d="M7.92801 9.42829C7.92801 9.07344 8.21601 8.78544 8.57087 8.78544H9.42801C9.71217 8.78544 9.9847 8.67255 10.1856 8.47162C10.3866 8.27069 10.4994 7.99817 10.4994 7.71401C10.4994 7.42985 10.3866 7.15732 10.1856 6.95639C9.9847 6.75546 9.71217 6.64258 9.42801 6.64258H8.57087C7.03316 6.64258 5.78516 7.89058 5.78516 9.42829V14.5711C5.78516 16.1089 7.03316 17.3569 8.57087 17.3569H9.42801C9.56872 17.3569 9.70804 17.3292 9.83803 17.2753C9.96802 17.2215 10.0861 17.1425 10.1856 17.0431C10.2851 16.9436 10.364 16.8254 10.4179 16.6955C10.4717 16.5655 10.4994 16.4261 10.4994 16.2854C10.4994 16.1447 10.4717 16.0054 10.4179 15.8754C10.364 15.7454 10.2851 15.6273 10.1856 15.5278C10.0861 15.4283 9.96802 15.3494 9.83803 15.2956C9.70804 15.2417 9.56872 15.214 9.42801 15.214H8.57087C8.40037 15.214 8.23686 15.1463 8.1163 15.0257C7.99574 14.9052 7.92801 14.7416 7.92801 14.5711V9.42829ZM16.0709 9.42829C16.0709 9.2578 16.0031 9.09428 15.8826 8.97372C15.762 8.85316 15.5985 8.78544 15.428 8.78544H14.5709C14.2867 8.78544 14.0142 8.67255 13.8133 8.47162C13.6123 8.27069 13.4994 7.99817 13.4994 7.71401C13.4994 7.42985 13.6123 7.15732 13.8133 6.95639C14.0142 6.75546 14.2867 6.64258 14.5709 6.64258H15.428C16.9657 6.64258 18.2137 7.89058 18.2137 9.42829V14.5711C18.2137 16.1089 16.9657 17.3569 15.428 17.3569H14.5709C14.4302 17.3569 14.2908 17.3292 14.1609 17.2753C14.0309 17.2215 13.9127 17.1425 13.8133 17.0431C13.7138 16.9436 13.6348 16.8254 13.581 16.6955C13.5272 16.5655 13.4994 16.4261 13.4994 16.2854C13.4994 16.1447 13.5272 16.0054 13.581 15.8754C13.6348 15.7454 13.7138 15.6273 13.8133 15.5278C13.9127 15.4283 14.0309 15.3494 14.1609 15.2956C14.2908 15.2417 14.4302 15.214 14.5709 15.214H15.428C15.5985 15.214 15.762 15.1463 15.8826 15.0257C16.0031 14.9052 16.0709 14.7416 16.0709 14.5711V9.42829Z" fill="url(#paint0_linear_395_46)"/>
</g>
<defs>
<filter id="filter0_i_395_46" x="0.427734" y="-0.571289" width="23.1426" height="24.1426" filterUnits="userSpaceOnUse" color-interpolation-filters="sRGB">
<feFlood flood-opacity="0" result="BackgroundImageFix"/>
<feBlend mode="normal" in="SourceGraphic" in2="BackgroundImageFix" result="shape"/>
<feColorMatrix in="SourceAlpha" type="matrix" values="0 0 0 0 0 0 0 0 0 0 0 0 0 0 0 0 0 0 127 0" result="hardAlpha"/>
<feOffset dy="-1"/>
<feGaussianBlur stdDeviation="2"/>
<feComposite in2="hardAlpha" operator="arithmetic" k2="-1" k3="1"/>
<feColorMatrix type="matrix" values="0 0 0 0 0 0 0 0 0 0 0 0 0 0 0 0 0 0 0.25 0"/>
<feBlend mode="normal" in2="shape" result="effect1_innerShadow_395_46"/>
</filter>
<linearGradient id="paint0_linear_395_46" x1="11.9994" y1="6.64258" x2="11.9994" y2="17.3569" gradientUnits="userSpaceOnUse">
<stop stop-color="#EA843A"/>
<stop offset="1" stop-color="#CF702A"/>
</linearGradient>
<clipPath id="clip0_395_46">
<rect width="24" height="24" fill="white"/>
</clipPath>
</defs>
</svg>
