<svg width="210" height="309" viewBox="0 0 210 309" fill="none" xmlns="http://www.w3.org/2000/svg">
<path d="M28.0667 1.4667C25.8 2.13336 22.3333 4.53336 20.4667 6.80003C17.4 10.4 17 12 17 21.0667C17 40.6667 21.9333 59.6 31.6667 77.2L36.8667 86.6667L31.6667 90.8C16.4667 102.933 4.33334 126 1.66667 147.2L0.733337 154.667H105H209.4L208.467 148.267C205.267 124.533 197.667 109.467 181 93.4667L174.867 87.7334L181.8 73.8667C192.867 51.8667 198.733 20.8 193.667 10.2667C190.733 4.00003 185.8 0.933363 178.867 0.933363C167.8 0.933363 163.133 6.80003 161.933 23.0667C160.733 37.3334 158.867 44.2667 152.867 56.6667C144.733 73.4667 145.933 72.6667 131.4 70.6667C115.933 68.5334 93 68.5334 79 70.6667L68.4667 72.2667L65.2667 68.5334C57.4 58.9334 52.2 43.6 50.2 24.9334C49.5333 17.4667 47.9333 10 46.8667 8.40003C43 2.2667 35.2667 -0.533304 28.0667 1.4667Z" fill="white"/>
<path d="M182.333 308.2C184.6 307.533 188.067 305.133 189.933 302.867C193 299.267 193.4 297.667 193.4 288.6C193.4 269 188.467 250.067 178.733 232.467L173.533 223L178.733 218.867C193.933 206.733 206.067 183.667 208.733 162.467L209.667 155H105.4H0.999994L1.93333 161.4C5.13333 185.133 12.7333 200.2 29.4 216.2L35.5333 221.933L28.6 235.8C17.5333 257.8 11.6667 288.867 16.7333 299.4C19.6667 305.667 24.6 308.733 31.5333 308.733C42.6 308.733 47.2667 302.867 48.4667 286.6C49.6667 272.333 51.5333 265.4 57.5333 253C65.6667 236.2 64.4667 237 79 239C94.4667 241.133 117.4 241.133 131.4 239L141.933 237.4L145.133 241.133C153 250.733 158.2 266.067 160.2 284.733C160.867 292.2 162.467 299.667 163.533 301.267C167.4 307.4 175.133 310.2 182.333 308.2Z" fill="#FC9309"/>
</svg>
