<svg width="24" height="24" viewBox="0 0 24 24" fill="none" xmlns="http://www.w3.org/2000/svg">
<g clip-path="url(#clip0_459_27)">
<path fill-rule="evenodd" clip-rule="evenodd" d="M21.5822 9.14767C21.3425 9.02216 21.0693 8.97547 20.8016 9.01425C20.5338 9.05304 20.2851 9.17531 20.0908 9.36367L12.8942 16.3408L9.77766 13.6048C9.53045 13.3877 9.20941 13.2736 8.88062 13.286C8.55184 13.2985 8.24033 13.4365 8.01023 13.6717L0.727946 21.1082C0.492403 21.348 0.360101 21.6704 0.359375 22.0065V22.4557C0.359375 23.1654 0.935375 23.7414 1.64509 23.7414H22.1771C22.8662 23.7414 23.9068 23.198 23.9359 22.5088V11.2151C23.9461 10.972 23.8871 10.7309 23.7657 10.52C23.6443 10.3091 23.4656 10.137 23.2502 10.0237L21.5822 9.14767Z" fill="#D4D4D4"/>
<path fill-rule="evenodd" clip-rule="evenodd" d="M21.5314 6.47818C21.7036 6.65055 21.9212 6.77044 22.159 6.82387C22.3967 6.8773 22.6447 6.86208 22.8741 6.77998C23.1035 6.69788 23.3049 6.55228 23.4547 6.36015C23.6046 6.16801 23.6967 5.93725 23.7205 5.69475C23.8748 4.13132 23.8765 3.2296 23.7205 1.72275C23.6898 1.42924 23.559 1.15524 23.3502 0.946721C23.1414 0.738205 22.8672 0.607874 22.5736 0.577605C21.0668 0.41989 20.1668 0.421605 18.6016 0.577605C18.3596 0.601898 18.1295 0.694339 17.9379 0.844196C17.7463 0.994053 17.6012 1.19518 17.5193 1.42422C17.4375 1.65326 17.4223 1.90082 17.4755 2.13815C17.5287 2.37548 17.6481 2.59286 17.8199 2.76503L18.7662 3.71132L12.4799 9.9976L9.73706 7.25303C9.49599 7.01226 9.16921 6.87702 8.82849 6.87702C8.48778 6.87702 8.16099 7.01226 7.91992 7.25303L0.467922 14.6999C0.23383 14.9425 0.104389 15.2673 0.107476 15.6044C0.110563 15.9415 0.245932 16.264 0.484428 16.5022C0.722923 16.7405 1.04546 16.8756 1.38257 16.8783C1.71969 16.8811 2.0444 16.7514 2.28678 16.517L8.82506 9.98046L11.5714 12.725C11.8124 12.9658 12.1392 13.101 12.4799 13.101C12.8206 13.101 13.1474 12.9658 13.3885 12.725L20.5851 5.53018L21.5314 6.47818Z" fill="#8F8F8F"/>
<path fill-rule="evenodd" clip-rule="evenodd" d="M8.57227 23.7414V13.3357C8.77984 13.2755 8.99923 13.2686 9.21017 13.3157C9.42111 13.3627 9.61679 13.4622 9.77912 13.6048L12.8957 16.3408L17.2963 12.0723V23.7414H8.57227Z" fill="#8F8F8F"/>
</g>
<defs>
<clipPath id="clip0_459_27">
<rect width="24" height="24" fill="white"/>
</clipPath>
</defs>
</svg>
