<svg width="512" height="512" viewBox="0 0 24 24" fill="none" xmlns="http://www.w3.org/2000/svg">
<path fill-rule="evenodd" clip-rule="evenodd" d="M4.40278 0.23484C6.85584 0.0808745 9.39692 0 12 0C14.6031 0 17.1442 0.0808745 19.5973 0.23484C21.8413 0.375683 23.6243 2.1588 23.7652 4.40278C23.9191 6.85584 24 9.39692 24 12V12.0062L23.983 14.5332C23.9815 14.7601 23.9383 14.9821 23.8578 15.189C23.8656 15.1454 23.873 15.1016 23.8802 15.0577H18.675C17.7068 15.0577 16.9142 15.8084 16.7709 16.7658C16.3063 19.8703 15.2402 21.9244 13.7263 23.9417C13.8029 23.9337 13.88 23.9247 13.9575 23.9147C13.7834 23.9686 13.601 23.9967 13.4159 23.997L12.0019 24H12C9.39692 24 6.85584 23.9191 4.40278 23.7652C2.1588 23.6243 0.375683 21.8413 0.23484 19.5973C0.0808745 17.1442 0 14.6031 0 12C0 9.39692 0.0808745 6.85584 0.23484 4.40278C0.375683 2.1588 2.1588 0.375683 4.40278 0.23484Z" fill="#FFF4EC"/>
<path d="M23.8805 15.0577C22.9897 20.556 17.7027 23.5237 13.7266 23.9417C15.2405 21.9244 16.3066 19.8704 16.7712 16.7658C16.9145 15.8084 17.7071 15.0577 18.6753 15.0577H23.8805Z" fill="url(#paint0_linear_49_553)"/>
<defs>
<linearGradient id="paint0_linear_49_553" x1="18.8035" y1="15.0577" x2="18.8035" y2="23.9417" gradientUnits="userSpaceOnUse">
<stop stop-color="#EA843A"/>
<stop offset="1" stop-color="#CF702A"/>
</linearGradient>
</defs>
</svg>
