<svg width="512" height="512" viewBox="0 0 25 25" fill="none" xmlns="http://www.w3.org/2000/svg">
<g clip-path="url(#clip0_49_530)">
<g clip-path="url(#clip1_49_530)">
<path fill-rule="evenodd" clip-rule="evenodd" d="M3.10734 0.262493C3.92698 0.171422 4.79662 0.0892792 5.69484 0.0892792C6.59127 0.0892792 7.4627 0.171422 8.27698 0.262493C9.01056 0.346512 9.6939 0.67702 10.2152 1.19994C10.7365 1.72286 11.0649 2.40723 11.1466 3.14106C11.2341 3.95356 11.3109 4.81606 11.3109 5.70535C11.3109 5.71679 11.3109 5.72823 11.3109 5.73967C11.3092 6.48239 10.8303 7.11899 10.2008 7.51306C9.65648 7.85377 9.15114 8.25529 8.69484 8.71071C8.2384 9.16836 7.83598 9.67516 7.49454 10.221C7.10363 10.8459 6.47345 11.3195 5.73637 11.3231C5.72252 11.3231 5.70868 11.3232 5.69484 11.3232C4.79662 11.3232 3.92698 11.2411 3.11091 11.15C2.37701 11.0664 1.69325 10.736 1.1716 10.2131C0.649939 9.6901 0.321297 9.00553 0.239481 8.27142C0.138973 7.41961 0.0841324 6.56303 0.0751953 5.70535C0.0751953 4.81606 0.151981 3.95356 0.239481 3.14106C0.321142 2.4075 0.649269 1.72334 1.17021 1.20045C1.69115 0.677565 2.37408 0.34689 3.10734 0.262493ZM6.12855 14.1853C6.1638 13.9157 5.96323 13.6681 5.69127 13.6678C4.79484 13.6678 3.92341 13.75 3.10912 13.8411C2.37554 13.9251 1.6922 14.2556 1.1709 14.7785C0.649604 15.3014 0.32122 15.9858 0.239481 16.7196C0.138973 17.5714 0.0841324 18.428 0.0751953 19.2857C0.0751953 20.175 0.151981 21.0393 0.239481 21.8518C0.400195 23.3589 1.60555 24.5625 3.10912 24.7304C3.96598 24.8355 4.82803 24.8927 5.69127 24.9018C6.55509 24.8928 7.41775 24.8355 8.2752 24.7304C8.34425 24.7225 8.41265 24.7124 8.48033 24.7003C9.27036 24.5591 9.26026 23.5785 8.69305 23.0107C6.77877 21.0982 6.02162 18.5161 6.02162 15.8607C6.02021 15.3003 6.05596 14.7406 6.12855 14.1853ZM22.9931 8.71071C23.5765 9.29151 24.5812 9.31316 24.7277 8.50307C24.7415 8.42646 24.7526 8.3492 24.7609 8.27142C24.8484 7.45892 24.9252 6.59642 24.9252 5.70535C24.9252 4.81606 24.8484 3.95356 24.7609 3.14106C24.6796 2.40738 24.3515 1.72305 23.8305 1.2001C23.3095 0.677154 22.6264 0.346579 21.8931 0.262493C21.035 0.156765 20.1718 0.0989369 19.3073 0.0892792C18.4109 0.0892792 17.5395 0.171422 16.7252 0.262493C15.9916 0.346512 15.3083 0.67702 14.787 1.19994C14.2657 1.72286 13.9373 2.40723 13.8556 3.14106C13.7551 3.99229 13.7003 4.84827 13.6913 5.70535C13.6913 5.97453 13.9366 6.17524 14.2036 6.14113C14.7471 6.0717 15.2948 6.03766 15.8431 6.03928C18.4984 6.03928 21.0806 6.79642 22.9931 8.71071Z" fill="#FFF4EC"/>
<path fill-rule="evenodd" clip-rule="evenodd" d="M10.9325 15.8607C10.9325 14.1071 11.4218 12.9268 12.1646 12.1821C12.9093 11.4393 14.0896 10.95 15.8432 10.95C17.5968 10.95 18.7771 11.4393 19.5218 12.1821C20.2646 12.9268 20.7539 14.1071 20.7539 15.8607C20.7539 17.6143 20.2646 18.7946 19.5218 19.5393C18.7771 20.2821 17.5968 20.7714 15.8432 20.7714C14.0896 20.7714 12.9093 20.2821 12.1646 19.5393C11.4218 18.7946 10.9325 17.6143 10.9325 15.8607ZM15.8432 8.27142C13.5968 8.27142 11.6521 8.90714 10.2718 10.2893C8.88962 11.6696 8.25391 13.6143 8.25391 15.8607C8.25391 18.1071 8.88962 20.0518 10.2718 21.4321C11.6521 22.8143 13.5968 23.45 15.8432 23.45C17.5664 23.45 19.111 23.075 20.361 22.2786L22.6003 24.5178C22.8542 24.7544 23.19 24.8832 23.537 24.8771C23.8839 24.871 24.215 24.7304 24.4604 24.485C24.7058 24.2397 24.8463 23.9086 24.8524 23.5616C24.8586 23.2147 24.7298 22.8789 24.4932 22.625L22.2557 20.3857C23.0575 19.1357 23.4343 17.5875 23.4343 15.8607C23.4343 13.6143 22.7968 11.6696 21.4164 10.2893C20.0343 8.90714 18.0896 8.27142 15.845 8.27142H15.8432Z" fill="url(#paint0_linear_49_530)"/>
</g>
</g>
<defs>
<linearGradient id="paint0_linear_49_530" x1="16.5533" y1="8.27142" x2="16.5533" y2="24.8773" gradientUnits="userSpaceOnUse">
<stop stop-color="#EA843A"/>
<stop offset="1" stop-color="#CF702A"/>
</linearGradient>
<clipPath id="clip0_49_530">
<rect width="25" height="25" fill="white"/>
</clipPath>
<clipPath id="clip1_49_530">
<rect width="25" height="25" fill="white"/>
</clipPath>
</defs>
</svg>
