<svg width="27" height="27" viewBox="0 0 27 27" fill="none" xmlns="http://www.w3.org/2000/svg">
<path fill-rule="evenodd" clip-rule="evenodd" d="M9.1132 13.5C8.45587 13.1911 7.83868 12.8032 7.27527 12.3448C6.2512 11.5078 5.57813 10.5898 5.19627 9.59661C4.81634 8.60725 4.74692 7.60439 4.83949 6.63432C4.93206 5.67004 5.18663 4.71732 5.47013 3.81089C5.6032 3.39046 5.74399 2.96811 5.88284 2.55732L5.91563 2.46475C6.06413 2.02118 6.20877 1.59111 6.33992 1.16489C6.40012 0.967698 6.52194 0.794993 6.68751 0.67212C6.85308 0.549247 7.05367 0.482677 7.25984 0.482178H19.7396C19.9461 0.482264 20.1472 0.548644 20.3131 0.671547C20.4791 0.79445 20.6012 0.967383 20.6615 1.16489C20.7926 1.58918 20.9373 2.02118 21.0858 2.46475L21.1186 2.55925C21.2555 2.96811 21.3982 3.38854 21.5313 3.81282C21.8148 4.71732 22.0693 5.67196 22.1619 6.63432C22.2545 7.60439 22.1851 8.60725 21.8051 9.59661C21.4233 10.5898 20.7502 11.5078 19.7261 12.3448C19.1633 12.8031 18.5468 13.191 17.8901 13.5C18.5516 13.8125 19.1707 14.2001 19.7281 14.6553C20.7502 15.4923 21.4252 16.4103 21.8071 17.4035C22.187 18.3928 22.2564 19.3957 22.1619 20.3677C22.0713 21.3281 21.8148 22.2828 21.5332 23.1892C21.4001 23.6096 21.2574 24.032 21.1205 24.4428L21.0877 24.5353C20.9392 24.9789 20.7946 25.4109 20.6634 25.8352C20.6031 26.0327 20.481 26.2056 20.315 26.3285C20.1491 26.4514 19.9481 26.5178 19.7416 26.5179H7.26177C7.05493 26.5182 6.85347 26.452 6.68713 26.3291C6.52079 26.2062 6.39838 26.033 6.33799 25.8352C6.20877 25.4109 6.06413 24.9789 5.9137 24.5353L5.88284 24.4408C5.74038 24.0246 5.6028 23.6067 5.47013 23.1873C5.18663 22.2828 4.93206 21.33 4.83949 20.3658C4.74692 19.3957 4.81634 18.3928 5.19627 17.4035C5.57813 16.4103 6.2512 15.4923 7.27527 14.6553C7.83263 14.2001 8.4517 13.8125 9.1132 13.5Z" fill="white" fill-opacity="0.75"/>
<path fill-rule="evenodd" clip-rule="evenodd" d="M3.3019 0C2.91828 0 2.55038 0.152391 2.27912 0.423649C2.00786 0.694907 1.85547 1.06281 1.85547 1.44643C1.85547 1.83005 2.00786 2.19795 2.27912 2.46921C2.55038 2.74047 2.91828 2.89286 3.3019 2.89286H23.6985C24.0821 2.89286 24.45 2.74047 24.7212 2.46921C24.9925 2.19795 25.1449 1.83005 25.1449 1.44643C25.1449 1.06281 24.9925 0.694907 24.7212 0.423649C24.45 0.152391 24.0821 0 23.6985 0L3.30383 0H3.3019ZM3.3019 24.1071C2.91828 24.1071 2.55038 24.2595 2.27912 24.5308C2.00786 24.8021 1.85547 25.17 1.85547 25.5536C1.85547 25.9372 2.00786 26.3051 2.27912 26.5764C2.55038 26.8476 2.91828 27 3.3019 27H23.6985C24.0821 27 24.45 26.8476 24.7212 26.5764C24.9925 26.3051 25.1449 25.9372 25.1449 25.5536C25.1449 25.17 24.9925 24.8021 24.7212 24.5308C24.45 24.2595 24.0821 24.1071 23.6985 24.1071H3.30383H3.3019Z" fill="#2859C5"/>
<path fill-rule="evenodd" clip-rule="evenodd" d="M3.3019 0C2.91828 0 2.55038 0.152391 2.27912 0.423649C2.00786 0.694907 1.85547 1.06281 1.85547 1.44643C1.85547 1.83005 2.00786 2.19795 2.27912 2.46921C2.55038 2.74047 2.91828 2.89286 3.3019 2.89286H23.6985C24.0821 2.89286 24.45 2.74047 24.7212 2.46921C24.9925 2.19795 25.1449 1.83005 25.1449 1.44643C25.1449 1.06281 24.9925 0.694907 24.7212 0.423649C24.45 0.152391 24.0821 0 23.6985 0L3.30383 0H3.3019ZM3.3019 24.1071C2.91828 24.1071 2.55038 24.2595 2.27912 24.5308C2.00786 24.8021 1.85547 25.17 1.85547 25.5536C1.85547 25.9372 2.00786 26.3051 2.27912 26.5764C2.55038 26.8476 2.91828 27 3.3019 27H23.6985C24.0821 27 24.45 26.8476 24.7212 26.5764C24.9925 26.3051 25.1449 25.9372 25.1449 25.5536C25.1449 25.17 24.9925 24.8021 24.7212 24.5308C24.45 24.2595 24.0821 24.1071 23.6985 24.1071H3.30383H3.3019Z" fill="url(#paint0_linear_29_556)"/>
<path d="M19.1917 21.197C19.2727 20.7669 18.9988 20.3639 18.6034 20.1787C18.0214 19.8961 17.4549 19.5825 16.9063 19.2395C16.1291 18.7747 15.3442 18.3042 14.511 18.011C14.1865 17.8964 13.8446 17.8384 13.5004 17.8394C13.134 17.8394 12.7965 17.9011 12.4899 18.011C11.6548 18.3042 10.8737 18.7747 10.0946 19.2395C9.54621 19.5829 8.97967 19.8965 8.39744 20.1787C8.00016 20.3639 7.72823 20.7669 7.80923 21.197C7.9018 21.6888 8.04644 22.2192 8.22966 22.8054C8.36466 23.2413 8.51316 23.6733 8.65973 24.1072H18.3412C18.4877 23.6733 18.6343 23.2394 18.7712 22.8054C18.9544 22.2211 19.0991 21.6869 19.1917 21.197Z" fill="url(#paint1_linear_29_556)"/>
<defs>
<linearGradient id="paint0_linear_29_556" x1="13.5002" y1="0" x2="13.5002" y2="27" gradientUnits="userSpaceOnUse">
<stop stop-color="#C97D37"/>
<stop offset="1" stop-color="#DE9552"/>
</linearGradient>
<linearGradient id="paint1_linear_29_556" x1="13.5004" y1="17.8394" x2="13.5004" y2="24.1072" gradientUnits="userSpaceOnUse">
<stop stop-color="#C97D37"/>
<stop offset="1" stop-color="#DE9552"/>
</linearGradient>
</defs>
</svg>
