<svg width="24" height="24" viewBox="0 0 24 24" fill="none" xmlns="http://www.w3.org/2000/svg">
<path fill-rule="evenodd" clip-rule="evenodd" d="M11.0563 2.0957C11.389 1.62236 11.8712 1.27467 12.4254 1.10855C12.9796 0.942439 13.5736 0.96756 14.1118 1.17987C14.65 1.39219 15.1011 1.77935 15.3927 2.2791C15.6842 2.77885 15.7992 3.36213 15.7191 3.93513L15.3814 6.33342H18.6643C19.6363 6.33342 20.9391 6.79285 21.9968 7.6397C23.0837 8.50713 23.9991 9.85456 23.9991 11.6648C23.9991 13.3551 23.1814 15.954 21.9951 18.102C21.3951 19.1888 20.6751 20.2157 19.8608 20.9837C19.0568 21.7414 18.0728 22.3311 16.9688 22.3311C12.774 22.3311 9.59055 21.7946 4.70312 19.8626C4.71005 19.7891 4.71349 19.7153 4.71341 19.6414V10.9843L11.0563 2.0957Z" fill="#D4D4D4"/>
<path fill-rule="evenodd" clip-rule="evenodd" d="M2.35714 7.42676C1.05429 7.42676 0 8.48276 0 9.7839V19.641C0 20.2662 0.248341 20.8657 0.690391 21.3078C1.13244 21.7498 1.73199 21.9982 2.35714 21.9982C2.9823 21.9982 3.58184 21.7498 4.02389 21.3078C4.46594 20.8657 4.71429 20.2662 4.71429 19.641V9.7839C4.71429 8.48104 3.65829 7.42676 2.35714 7.42676Z" fill="#8F8F8F"/>
</svg>
