<svg width="512" height="512" viewBox="0 0 32 34" fill="none" xmlns="http://www.w3.org/2000/svg">
<path fill-rule="evenodd" clip-rule="evenodd" d="M15.6393 17.7256L10.9933 19.1861C9.18836 19.7536 7.51483 19.1051 6.48567 18.1709C5.45662 17.2368 4.64789 15.6316 5.04211 13.7775L5.35249 12.3177H4.38521C2.59084 12.3177 1.154 13.6338 0.772866 15.2678L0.72356 15.4784C0.364167 17.0106 0 18.5632 0 22.6723C0 26.7814 0.364167 28.334 0.72356 29.8662L0.772866 30.0767C1.154 31.7109 2.59084 33.0269 4.38521 33.0269H27.6148C29.4108 33.0269 30.8409 31.7099 31.2339 30.0888L31.274 29.9243C31.6366 28.4343 32 26.941 32 22.6723C32 18.4037 31.6366 16.9104 31.274 15.4203L31.2339 15.2558C30.8409 13.6347 29.4108 12.3177 27.6148 12.3177H21.4007L17.1671 16.7726C16.7469 17.2147 16.2212 17.5426 15.6393 17.7256Z" fill="url(#paint0_linear_186_547)"/>
<g filter="url(#filter0_i_186_547)">
<path fill-rule="evenodd" clip-rule="evenodd" d="M16.3228 1.2174C17.76 -0.413413 20.3036 -0.366067 21.9855 1.12161C23.7065 2.64378 24.0381 5.24192 22.5034 6.85676L15.0194 14.7317C14.9456 14.8094 14.8531 14.867 14.7508 14.8992L10.1048 16.3598C9.48652 16.5542 8.87973 16.3426 8.47724 15.9773C8.07478 15.6119 7.80555 15.0282 7.9404 14.3939L8.93304 9.72529C8.95563 9.619 9.00527 9.52035 9.07709 9.43883L16.3228 1.2174ZM19.9167 20.1701C19.9167 19.3519 20.58 18.6886 21.3982 18.6886H25.5738C26.3918 18.6886 27.0553 19.3519 27.0553 20.1701C27.0553 20.9883 26.3918 21.6516 25.5738 21.6516H21.3982C20.58 21.6516 19.9167 20.9883 19.9167 20.1701ZM15.7411 26.7627C15.7411 25.9444 16.4044 25.2812 17.2226 25.2812H25.5738C26.3918 25.2812 27.0553 25.9444 27.0553 26.7627C27.0553 27.5809 26.3918 28.2441 25.5738 28.2441H17.2226C16.4044 28.2441 15.7411 27.5809 15.7411 26.7627Z" fill="#FFF4EC"/>
</g>
<defs>
<filter id="filter0_i_186_547" x="7.90527" y="0" width="19.1504" height="28.2441" filterUnits="userSpaceOnUse" color-interpolation-filters="sRGB">
<feFlood flood-opacity="0" result="BackgroundImageFix"/>
<feBlend mode="normal" in="SourceGraphic" in2="BackgroundImageFix" result="shape"/>
<feColorMatrix in="SourceAlpha" type="matrix" values="0 0 0 0 0 0 0 0 0 0 0 0 0 0 0 0 0 0 127 0" result="hardAlpha"/>
<feOffset/>
<feGaussianBlur stdDeviation="4"/>
<feComposite in2="hardAlpha" operator="arithmetic" k2="-1" k3="1"/>
<feColorMatrix type="matrix" values="0 0 0 0 0.917647 0 0 0 0 0.517647 0 0 0 0 0.227451 0 0 0 0.25 0"/>
<feBlend mode="normal" in2="shape" result="effect1_innerShadow_186_547"/>
</filter>
<linearGradient id="paint0_linear_186_547" x1="16" y1="12.3177" x2="16" y2="33.0269" gradientUnits="userSpaceOnUse">
<stop stop-color="#EA843A"/>
<stop offset="1" stop-color="#CF702A"/>
</linearGradient>
</defs>
</svg>
