<svg width="512" height="512" viewBox="0 0 25 25" fill="none" xmlns="http://www.w3.org/2000/svg">
<g clip-path="url(#clip0_49_511)">
<path fill-rule="evenodd" clip-rule="evenodd" d="M5.80501 20.1575C4.9513 20.2668 4.12717 19.7734 3.82935 18.9659C3.7241 18.6803 3.61746 18.3934 3.51019 18.1048C2.82889 16.2716 2.12258 14.3712 1.58718 12.373C1.05177 10.3749 0.713229 8.37592 0.386656 6.44765C0.335242 6.14408 0.284126 5.84225 0.232585 5.54247C0.0867537 4.69424 0.553743 3.85484 1.34772 3.52263C1.54926 3.43831 1.75166 3.35299 1.95505 3.26724C3.4498 2.63711 4.99767 1.98458 6.64408 1.54343C8.29048 1.10228 9.95724 0.893445 11.5668 0.691781C11.7858 0.664342 12.0038 0.637035 12.2205 0.609294C13.0742 0.500001 13.8983 0.993444 14.1961 1.80095C14.3014 2.08634 14.408 2.37329 14.5153 2.6619C15.1966 4.49513 15.9029 6.39552 16.4383 8.3937C16.7465 9.54413 16.9895 10.6948 17.2026 11.8321C16.8049 11.8666 16.4175 11.9072 16.043 11.949C13.892 12.1888 12.1682 13.9084 11.9371 16.0684C11.835 17.0222 11.742 18.0539 11.7347 19.125C11.6174 19.1589 11.4997 19.1916 11.3814 19.2234C9.73499 19.6644 8.06823 19.8734 6.45867 20.075C6.23965 20.1025 6.02171 20.1296 5.80501 20.1575Z" fill="#FFF4EC"/>
<path fill-rule="evenodd" clip-rule="evenodd" d="M8.35029 6.47977C8.24138 6.40079 8.10265 6.37513 7.97268 6.40997C7.84272 6.44479 7.7354 6.53636 7.68056 6.65922L5.77122 10.937C5.68581 11.1284 5.745 11.3534 5.91352 11.4779L9.72372 14.2942C9.83306 14.3751 9.97327 14.4016 10.1046 14.3664C10.236 14.3313 10.3441 14.2381 10.3984 14.1135L12.29 9.7694C12.3736 9.57725 12.3124 9.35277 12.1427 9.22975L8.35029 6.47977Z" fill="url(#paint0_linear_49_511)"/>
<path d="M13.7132 22.2618C13.8548 23.585 14.9189 24.6491 16.2414 24.7964C17.2236 24.9059 18.2321 25 19.2603 25C20.2887 25 21.2971 24.9059 22.2795 24.7964C23.602 24.6491 24.6661 23.585 24.8077 22.2618C24.9121 21.2852 25.0003 20.2823 25.0003 19.26C25.0003 18.2378 24.9121 17.235 24.8077 16.2583C24.6661 14.9352 23.602 13.8711 22.2795 13.7237C21.2971 13.6142 20.2887 13.5201 19.2603 13.5201C18.2321 13.5201 17.2236 13.6142 16.2414 13.7237C14.9189 13.8711 13.8548 14.9352 13.7132 16.2583C13.6087 17.235 13.5205 18.2378 13.5205 19.26C13.5205 20.2823 13.6087 21.2852 13.7132 22.2618Z" fill="url(#paint1_linear_49_511)"/>
<path fill-rule="evenodd" clip-rule="evenodd" d="M19.4572 11.7354C19.968 11.7407 20.4694 11.7661 20.9571 11.8027C21.033 11.5428 21.1065 11.2811 21.1771 11.0178C21.7126 9.01966 22.051 7.02073 22.3776 5.09246C22.429 4.78889 22.4801 4.48705 22.5317 4.18725C22.6776 3.33901 22.2105 2.49962 21.4165 2.16742C21.2151 2.08312 21.0128 1.99782 20.8094 1.91209C19.3147 1.28195 17.7666 0.629369 16.1202 0.188217C16.0178 0.160781 15.9153 0.134244 15.8128 0.108551C16.0078 0.388044 16.1701 0.695958 16.2928 1.02847C16.3948 1.30509 16.4994 1.58643 16.6057 1.87219C17.2852 3.69971 18.0319 5.70785 18.5967 7.81589C18.9506 9.1366 19.2231 10.459 19.4572 11.7354ZM17.2047 11.832C17.2046 11.832 17.2048 11.832 17.2047 11.832V11.832Z" fill="#FFF4EC"/>
<path fill-rule="evenodd" clip-rule="evenodd" d="M17.1946 19.5582C17.6877 19.5582 18.0875 19.958 18.0875 20.4511V21.3439C18.0875 21.8371 17.6877 22.2368 17.1946 22.2368C16.7015 22.2368 16.3018 21.8371 16.3018 21.3439V20.4511C16.3018 19.958 16.7015 19.5582 17.1946 19.5582Z" fill="#FFF4EC"/>
<path fill-rule="evenodd" clip-rule="evenodd" d="M21.2386 15.8787C21.7316 15.8787 22.1314 16.2785 22.1314 16.7716V17.6644C22.1314 18.1575 21.7316 18.5573 21.2386 18.5573C20.7453 18.5573 20.3457 18.1575 20.3457 17.6644V16.7716C20.3457 16.2785 20.7453 15.8787 21.2386 15.8787Z" fill="#FFF4EC"/>
</g>
<defs>
<linearGradient id="paint0_linear_49_511" x1="9.02977" y1="6.39474" x2="9.02977" y2="14.3817" gradientUnits="userSpaceOnUse">
<stop stop-color="#EA843A"/>
<stop offset="1" stop-color="#CF702A"/>
</linearGradient>
<linearGradient id="paint1_linear_49_511" x1="19.2604" y1="13.5201" x2="19.2604" y2="25" gradientUnits="userSpaceOnUse">
<stop stop-color="#EA843A"/>
<stop offset="1" stop-color="#CF702A"/>
</linearGradient>
<clipPath id="clip0_49_511">
<rect width="25" height="25" fill="white"/>
</clipPath>
</defs>
</svg>
