<svg width="25" height="25" viewBox="0 0 25 25" fill="none" xmlns="http://www.w3.org/2000/svg">
<g clip-path="url(#clip0_449_127)">
<path fill-rule="evenodd" clip-rule="evenodd" d="M4.07223 0.0324219C4.54188 0.00742188 4.95616 0.00742188 5.42581 0.0324219C6.76152 0.102065 7.78831 1.19314 7.84009 2.49671C7.87223 3.29671 7.87938 4.08421 7.86152 4.87885C7.84911 5.46492 7.67754 6.03658 7.36519 6.53263C7.05284 7.02869 6.61146 7.43045 6.08831 7.69492V14.2735C6.08831 14.4494 6.05366 14.6235 5.98636 14.786C5.91905 14.9485 5.8204 15.0961 5.69604 15.2205C5.57167 15.3449 5.42403 15.4435 5.26154 15.5108C5.09905 15.5781 4.9249 15.6128 4.74902 15.6128C4.57314 15.6128 4.39899 15.5781 4.2365 15.5108C4.07401 15.4435 3.92637 15.3449 3.802 15.2205C3.67764 15.0961 3.57899 14.9485 3.51168 14.786C3.44438 14.6235 3.40973 14.4494 3.40973 14.2735V7.69492C2.88658 7.43045 2.4452 7.02869 2.13285 6.53263C1.8205 6.03658 1.64893 5.46492 1.63652 4.87885C1.61866 4.08421 1.62581 3.29671 1.65795 2.49849C1.68132 1.86072 1.94169 1.25458 2.38815 0.798534C2.83462 0.342492 3.4351 0.069326 4.07223 0.0324219Z" fill="url(#paint0_linear_449_127)"/>
<g filter="url(#filter0_i_449_127)">
<path fill-rule="evenodd" clip-rule="evenodd" d="M14.2665 0.0271575C12.945 0.405729 11.8915 1.07537 11.17 2.02716C10.4486 2.98251 10.0879 4.1843 10.0879 5.5843C10.0879 6.8968 10.4057 8.03609 11.0415 8.96109C11.6468 9.83966 12.52 10.4968 13.6165 10.9218C13.5469 12.7889 13.5076 14.657 13.4986 16.5254C13.4986 17.7629 13.5575 20.4807 13.6254 21.6647C13.7147 23.2343 14.8504 24.745 16.5022 24.9307C16.9733 24.9838 17.4489 24.9838 17.92 24.9307C19.5718 24.745 20.7057 23.2343 20.795 21.6647C20.8647 20.4807 20.9236 17.7629 20.9236 16.5254C20.9236 15.3486 20.87 12.2397 20.8057 10.9218C21.9022 10.4968 22.7754 9.83966 23.3807 8.96109C24.0165 8.03609 24.3343 6.8968 24.3343 5.5843C24.3343 4.23073 23.995 3.0593 23.32 2.12001C22.6432 1.18073 21.654 0.505729 20.4075 0.102158C20.3194 0.0736208 20.2257 0.0664108 20.1342 0.08112C20.0427 0.0958292 19.956 0.132038 19.8812 0.186771C19.8064 0.241504 19.7457 0.313198 19.704 0.395964C19.6624 0.47873 19.6409 0.570205 19.6415 0.662872C19.6415 2.43073 19.395 3.42537 19.0165 3.97359C18.67 4.47359 18.1629 4.67001 17.3736 4.67001C16.5825 4.67001 16.0772 4.47359 15.7307 3.97359C15.3504 3.42537 15.1022 2.43073 15.1022 0.662872C15.1026 0.561251 15.0795 0.460915 15.0346 0.369749C14.9897 0.278583 14.9242 0.199071 14.8434 0.137463C14.7626 0.0758552 14.6686 0.03383 14.5688 0.0146903C14.469 -0.00444932 14.3643 -0.000181776 14.2665 0.0271575Z" fill="white"/>
</g>
<g filter="url(#filter1_i_449_127)">
<path fill-rule="evenodd" clip-rule="evenodd" d="M6.30887 13.6435C5.27006 13.5602 4.22626 13.5602 3.18744 13.6435C1.86066 13.747 0.90173 14.8399 0.810658 16.0899C0.73923 17.0756 0.666016 18.1256 0.666016 19.206C0.666016 19.7631 0.683873 20.3113 0.71423 20.8453C0.821373 22.8863 2.39994 24.9828 4.69637 25.0006H4.74994H4.80352C7.09816 24.9828 8.67494 22.8863 8.78387 20.8453C8.81244 20.3095 8.8303 19.7631 8.8303 19.206C8.8303 18.1256 8.75887 17.0756 8.68744 16.0899C8.59637 14.8399 7.63566 13.747 6.30887 13.6435Z" fill="white"/>
</g>
</g>
<defs>
<filter id="filter0_i_449_127" x="10.0879" y="-0.99707" width="14.2461" height="25.9678" filterUnits="userSpaceOnUse" color-interpolation-filters="sRGB">
<feFlood flood-opacity="0" result="BackgroundImageFix"/>
<feBlend mode="normal" in="SourceGraphic" in2="BackgroundImageFix" result="shape"/>
<feColorMatrix in="SourceAlpha" type="matrix" values="0 0 0 0 0 0 0 0 0 0 0 0 0 0 0 0 0 0 127 0" result="hardAlpha"/>
<feOffset dy="-1"/>
<feGaussianBlur stdDeviation="2"/>
<feComposite in2="hardAlpha" operator="arithmetic" k2="-1" k3="1"/>
<feColorMatrix type="matrix" values="0 0 0 0 0 0 0 0 0 0 0 0 0 0 0 0 0 0 0.25 0"/>
<feBlend mode="normal" in2="shape" result="effect1_innerShadow_449_127"/>
</filter>
<filter id="filter1_i_449_127" x="0.666016" y="12.5811" width="8.16406" height="12.4199" filterUnits="userSpaceOnUse" color-interpolation-filters="sRGB">
<feFlood flood-opacity="0" result="BackgroundImageFix"/>
<feBlend mode="normal" in="SourceGraphic" in2="BackgroundImageFix" result="shape"/>
<feColorMatrix in="SourceAlpha" type="matrix" values="0 0 0 0 0 0 0 0 0 0 0 0 0 0 0 0 0 0 127 0" result="hardAlpha"/>
<feOffset dy="-1"/>
<feGaussianBlur stdDeviation="2"/>
<feComposite in2="hardAlpha" operator="arithmetic" k2="-1" k3="1"/>
<feColorMatrix type="matrix" values="0 0 0 0 0 0 0 0 0 0 0 0 0 0 0 0 0 0 0.25 0"/>
<feBlend mode="normal" in2="shape" result="effect1_innerShadow_449_127"/>
</filter>
<linearGradient id="paint0_linear_449_127" x1="4.74902" y1="0.0136719" x2="4.74902" y2="15.6128" gradientUnits="userSpaceOnUse">
<stop stop-color="#808080"/>
<stop offset="1" stop-color="#646464"/>
</linearGradient>
<clipPath id="clip0_449_127">
<rect width="25" height="25" fill="white"/>
</clipPath>
</defs>
</svg>
