<svg width="28" height="28" viewBox="0 0 28 28" fill="none" xmlns="http://www.w3.org/2000/svg">
<g clip-path="url(#clip0_400_2)">
<g filter="url(#filter0_i_400_2)">
<path d="M6.5 12.5C6.5 13.2879 6.65519 14.0681 6.95672 14.7961C7.25825 15.5241 7.70021 16.1855 8.25736 16.7426C8.81451 17.2998 9.47595 17.7417 10.2039 18.0433C10.9319 18.3448 11.7121 18.5 12.5 18.5C13.2879 18.5 14.0681 18.3448 14.7961 18.0433C15.5241 17.7417 16.1855 17.2998 16.7426 16.7426C17.2998 16.1855 17.7417 15.5241 18.0433 14.7961C18.3448 14.0681 18.5 13.2879 18.5 12.5C18.5 11.7121 18.3448 10.9319 18.0433 10.2039C17.7417 9.47595 17.2998 8.81451 16.7426 8.25736C16.1855 7.70021 15.5241 7.25825 14.7961 6.95672C14.0681 6.65519 13.2879 6.5 12.5 6.5C11.7121 6.5 10.9319 6.65519 10.2039 6.95672C9.47595 7.25825 8.81451 7.70021 8.25736 8.25736C7.70021 8.81451 7.25825 9.47595 6.95672 10.2039C6.65519 10.9319 6.5 11.7121 6.5 12.5Z" fill="white"/>
</g>
<g filter="url(#filter1_i_400_2)">
<path fill-rule="evenodd" clip-rule="evenodd" d="M3.146 3.146C3.19252 3.0996 3.24773 3.06282 3.30847 3.03777C3.36921 3.01272 3.4343 2.99988 3.5 3H6.5C6.89782 3 7.27936 2.84196 7.56066 2.56066C7.84196 2.27936 8 1.89782 8 1.5C8 1.10218 7.84196 0.720644 7.56066 0.43934C7.27936 0.158035 6.89782 0 6.5 0L3.5 0C2.57174 0 1.6815 0.368749 1.02513 1.02513C0.368749 1.6815 0 2.57174 0 3.5L0 6.5C0 6.89782 0.158035 7.27936 0.43934 7.56066C0.720644 7.84196 1.10218 8 1.5 8C1.89782 8 2.27936 7.84196 2.56066 7.56066C2.84196 7.27936 3 6.89782 3 6.5V3.5C2.99988 3.4343 3.01272 3.36921 3.03777 3.30847C3.06282 3.24773 3.0996 3.19252 3.146 3.146ZM28 21.5C28 21.1022 27.842 20.7206 27.5607 20.4393C27.2794 20.158 26.8978 20 26.5 20C26.1022 20 25.7206 20.158 25.4393 20.4393C25.158 20.7206 25 21.1022 25 21.5V24.5C25 24.6326 24.9473 24.7598 24.8536 24.8536C24.7598 24.9473 24.6326 25 24.5 25H21.5C21.1022 25 20.7206 25.158 20.4393 25.4393C20.158 25.7206 20 26.1022 20 26.5C20 26.8978 20.158 27.2794 20.4393 27.5607C20.7206 27.842 21.1022 28 21.5 28H24.5C25.4283 28 26.3185 27.6313 26.9749 26.9749C27.6313 26.3185 28 25.4283 28 24.5V21.5ZM1.5 20C1.89782 20 2.27936 20.158 2.56066 20.4393C2.84196 20.7206 3 21.1022 3 21.5V24.5C3 24.6326 3.05268 24.7598 3.14645 24.8536C3.24021 24.9473 3.36739 25 3.5 25H6.5C6.89782 25 7.27936 25.158 7.56066 25.4393C7.84196 25.7206 8 26.1022 8 26.5C8 26.8978 7.84196 27.2794 7.56066 27.5607C7.27936 27.842 6.89782 28 6.5 28H3.5C2.57174 28 1.6815 27.6313 1.02513 26.9749C0.368749 26.3185 0 25.4283 0 24.5L0 21.5C0 21.1022 0.158035 20.7206 0.43934 20.4393C0.720644 20.158 1.10218 20 1.5 20ZM21.5 0C21.1022 0 20.7206 0.158035 20.4393 0.43934C20.158 0.720644 20 1.10218 20 1.5C20 1.89782 20.158 2.27936 20.4393 2.56066C20.7206 2.84196 21.1022 3 21.5 3H24.5C24.6326 3 24.7598 3.05268 24.8536 3.14645C24.9473 3.24021 25 3.36739 25 3.5V6.5C25 6.89782 25.158 7.27936 25.4393 7.56066C25.7206 7.84196 26.1022 8 26.5 8C26.8978 8 27.2794 7.84196 27.5607 7.56066C27.842 7.27936 28 6.89782 28 6.5V3.5C28 2.57174 27.6313 1.6815 26.9749 1.02513C26.3185 0.368749 25.4283 0 24.5 0H21.5Z" fill="white"/>
</g>
<path fill-rule="evenodd" clip-rule="evenodd" d="M7.99965 12.5C7.99965 11.3065 8.47375 10.1619 9.31767 9.31802C10.1616 8.47411 11.3062 8 12.4996 8C13.6931 8 14.8377 8.47411 15.6816 9.31802C16.5255 10.1619 16.9996 11.3065 16.9996 12.5C16.9996 13.6935 16.5255 14.8381 15.6816 15.682C14.8377 16.5259 13.6931 17 12.4996 17C11.3062 17 10.1616 16.5259 9.31767 15.682C8.47375 14.8381 7.99965 13.6935 7.99965 12.5ZM12.4996 5C11.3303 5.00036 10.1772 5.27415 9.1325 5.79949C8.08779 6.32484 7.1804 7.08719 6.48279 8.02567C5.78517 8.96415 5.31667 10.0527 5.11468 11.2045C4.9127 12.3563 4.98284 13.5394 5.31949 14.6592C5.65615 15.7791 6.25 16.8047 7.05361 17.6542C7.85722 18.5037 8.84833 19.1535 9.94779 19.5517C11.0473 19.9499 12.2246 20.0855 13.3858 19.9477C14.547 19.8099 15.6599 19.4025 16.6356 18.758L19.9396 22.06C20.077 22.2074 20.2426 22.3256 20.4266 22.4076C20.6106 22.4895 20.8092 22.5336 21.0106 22.5372C21.212 22.5407 21.4121 22.5037 21.5988 22.4282C21.7856 22.3528 21.9553 22.2405 22.0977 22.0981C22.2402 21.9556 22.3525 21.786 22.4279 21.5992C22.5033 21.4124 22.5404 21.2124 22.5368 21.011C22.5333 20.8096 22.4892 20.6109 22.4072 20.4269C22.3252 20.2429 22.207 20.0773 22.0596 19.94L18.7596 16.636C19.5071 15.5054 19.9341 14.1934 19.9955 12.8394C20.0568 11.4855 19.7501 10.1403 19.108 8.94669C18.4659 7.75313 17.5124 6.75587 16.3487 6.06094C15.1851 5.366 13.855 4.99936 12.4996 5Z" fill="url(#paint0_linear_400_2)"/>
</g>
<defs>
<filter id="filter0_i_400_2" x="6.5" y="5.5" width="12" height="13" filterUnits="userSpaceOnUse" color-interpolation-filters="sRGB">
<feFlood flood-opacity="0" result="BackgroundImageFix"/>
<feBlend mode="normal" in="SourceGraphic" in2="BackgroundImageFix" result="shape"/>
<feColorMatrix in="SourceAlpha" type="matrix" values="0 0 0 0 0 0 0 0 0 0 0 0 0 0 0 0 0 0 127 0" result="hardAlpha"/>
<feOffset dy="-1"/>
<feGaussianBlur stdDeviation="2"/>
<feComposite in2="hardAlpha" operator="arithmetic" k2="-1" k3="1"/>
<feColorMatrix type="matrix" values="0 0 0 0 0 0 0 0 0 0 0 0 0 0 0 0 0 0 0.25 0"/>
<feBlend mode="normal" in2="shape" result="effect1_innerShadow_400_2"/>
</filter>
<filter id="filter1_i_400_2" x="0" y="-1" width="28" height="29" filterUnits="userSpaceOnUse" color-interpolation-filters="sRGB">
<feFlood flood-opacity="0" result="BackgroundImageFix"/>
<feBlend mode="normal" in="SourceGraphic" in2="BackgroundImageFix" result="shape"/>
<feColorMatrix in="SourceAlpha" type="matrix" values="0 0 0 0 0 0 0 0 0 0 0 0 0 0 0 0 0 0 127 0" result="hardAlpha"/>
<feOffset dy="-1"/>
<feGaussianBlur stdDeviation="2"/>
<feComposite in2="hardAlpha" operator="arithmetic" k2="-1" k3="1"/>
<feColorMatrix type="matrix" values="0 0 0 0 0 0 0 0 0 0 0 0 0 0 0 0 0 0 0.25 0"/>
<feBlend mode="normal" in2="shape" result="effect1_innerShadow_400_2"/>
</filter>
<linearGradient id="paint0_linear_400_2" x1="13.7695" y1="5" x2="13.7695" y2="22.5374" gradientUnits="userSpaceOnUse">
<stop stop-color="#808080"/>
<stop offset="1" stop-color="#646464"/>
</linearGradient>
<clipPath id="clip0_400_2">
<rect width="28" height="28" fill="white"/>
</clipPath>
</defs>
</svg>
