<svg width="512" height="512" viewBox="0 0 26 26" fill="none" xmlns="http://www.w3.org/2000/svg">
<g clip-path="url(#clip0_49_556)">
<path fill-rule="evenodd" clip-rule="evenodd" d="M15.1953 1.651C14.9421 1.30666 14.6115 1.02669 14.2302 0.833727C13.8489 0.640766 13.4275 0.540222 13.0001 0.540222C12.5727 0.540222 12.1514 0.640766 11.77 0.833727C11.3887 1.02669 11.0581 1.30666 10.805 1.651C10.3216 2.30681 9.66821 2.818 8.91536 3.12929C8.1625 3.44058 7.33887 3.54012 6.53354 3.41715C6.10964 3.35263 5.67652 3.38866 5.26912 3.52233C4.86171 3.65599 4.49144 3.88356 4.18816 4.18666C3.88488 4.48975 3.6571 4.8599 3.52318 5.26722C3.38927 5.67455 3.35299 6.10765 3.41725 6.53157C3.54022 7.33691 3.44068 8.16054 3.12939 8.9134C2.8181 9.66625 2.30691 10.3197 1.65111 10.803C1.3064 11.0561 1.02611 11.3868 0.832922 11.7683C0.639731 12.1498 0.539062 12.5714 0.539062 12.9991C0.539062 13.4267 0.639731 13.8483 0.832922 14.2299C1.02611 14.6114 1.3064 14.9421 1.65111 15.1951C2.30691 15.6785 2.8181 16.3319 3.12939 17.0848C3.44068 17.8376 3.54022 18.6612 3.41725 19.4666C3.35273 19.8905 3.38876 20.3236 3.52243 20.731C3.6561 21.1384 3.88366 21.5087 4.18676 21.812C4.48986 22.1152 4.86 22.343 5.26733 22.4769C5.67465 22.6108 6.10775 22.6471 6.53168 22.5829C7.33702 22.4599 8.16065 22.5594 8.9135 22.8707C9.66636 23.182 10.3198 23.6932 10.8031 24.349C11.0562 24.6937 11.3869 24.974 11.7684 25.1672C12.1499 25.3604 12.5715 25.461 12.9992 25.461C13.4268 25.461 13.8485 25.3604 14.23 25.1672C14.6115 24.974 14.9422 24.6937 15.1953 24.349C15.6786 23.6932 16.332 23.182 17.0849 22.8707C17.8377 22.5594 18.6613 22.4599 19.4667 22.5829C19.8906 22.6474 20.3237 22.6113 20.7311 22.4777C21.1385 22.344 21.5088 22.1164 21.8121 21.8134C22.1153 21.5103 22.3431 21.1401 22.477 20.7328C22.6109 20.3255 22.6472 19.8924 22.583 19.4684C22.46 18.6631 22.5595 17.8395 22.8708 17.0866C23.1821 16.3338 23.6933 15.6803 24.3491 15.197C24.6938 14.9439 24.9741 14.6132 25.1673 14.2317C25.3605 13.8502 25.4612 13.4286 25.4612 13.0009C25.4612 12.5733 25.3605 12.1517 25.1673 11.7701C24.9741 11.3886 24.6938 11.0579 24.3491 10.8049C23.6933 10.3215 23.1821 9.66811 22.8708 8.91525C22.5595 8.1624 22.46 7.33877 22.583 6.53343C22.6475 6.10954 22.6115 5.67642 22.4778 5.26902C22.3441 4.86161 22.1166 4.49133 21.8135 4.18805C21.5104 3.88478 21.1402 3.65699 20.7329 3.52308C20.3256 3.38917 19.8925 3.35288 19.4685 3.41715C18.6632 3.54012 17.8396 3.44058 17.0867 3.12929C16.3339 2.818 15.6786 2.30681 15.1953 1.651Z" fill="#FFF4EC"/>
<path d="M13.0002 18.6457C16.6142 18.6457 18.6459 16.614 18.6459 13C18.6459 9.38601 16.6161 7.35429 13.0002 7.35429C9.38435 7.35429 7.35449 9.38415 7.35449 13C7.35449 16.6159 9.38435 18.6457 13.0002 18.6457Z" fill="url(#paint0_linear_49_556)"/>
</g>
<defs>
<linearGradient id="paint0_linear_49_556" x1="13.0002" y1="7.35429" x2="13.0002" y2="18.6457" gradientUnits="userSpaceOnUse">
<stop stop-color="#EA843A"/>
<stop offset="1" stop-color="#CF702A"/>
</linearGradient>
<clipPath id="clip0_49_556">
<rect width="26" height="26" fill="white"/>
</clipPath>
</defs>
</svg>
