<svg width="32" height="32" viewBox="0 0 32 32" fill="none" xmlns="http://www.w3.org/2000/svg">
<g filter="url(#filter0_i_718_3)">
<path d="M15.9465 14.8675C15.4208 14.8675 14.8997 14.9749 14.4151 15.1852L1.36403 21.2765L1.33203 21.2925C0.931502 21.4944 0.594896 21.8036 0.359712 22.1856C0.124528 22.5675 0 23.0073 0 23.4559C0 23.9044 0.124528 24.3442 0.359712 24.7261C0.594896 25.1081 0.931502 25.4173 1.33203 25.6192L1.36632 25.6352L14.3945 31.6693L14.4174 31.6808C14.9006 31.8909 15.4219 31.9994 15.9488 31.9994C16.4757 31.9994 16.997 31.8909 17.4802 31.6808L30.5335 25.5872L30.5655 25.5735C30.966 25.3716 31.3027 25.0624 31.5378 24.6804C31.773 24.2985 31.8976 23.8587 31.8976 23.4101C31.8976 22.9616 31.773 22.5218 31.5378 22.1399C31.3027 21.7579 30.966 21.4487 30.5655 21.2468L30.5312 21.2308L17.503 15.1967L17.4802 15.1852C16.9971 14.9746 16.4758 14.8657 15.9488 14.8652L15.9465 14.8675Z" fill="white"/>
</g>
<path d="M15.9481 7.43263C15.4224 7.43263 14.9013 7.54234 14.4167 7.75262L1.36568 13.8416L1.33368 13.8576C0.933741 14.0598 0.597712 14.3689 0.362954 14.7506C0.128195 15.1323 0.00390625 15.5717 0.00390625 16.0198C0.00390625 16.468 0.128195 16.9073 0.362954 17.289C0.597712 17.6707 0.933741 17.9799 1.33368 18.182L1.36796 18.2003L14.3962 24.2345L14.419 24.2459C14.9022 24.456 15.4235 24.5645 15.9504 24.5645C16.4773 24.5645 16.9986 24.456 17.4818 24.2459L30.5352 18.1523L30.5672 18.1363C30.9671 17.9342 31.3031 17.625 31.5379 17.2433C31.7726 16.8616 31.8969 16.4222 31.8969 15.9741C31.8969 15.526 31.7726 15.0866 31.5379 14.7049C31.3031 14.3232 30.9671 14.0141 30.5672 13.8119L30.5329 13.7936L17.5047 7.75948L17.4818 7.74805C16.9977 7.53869 16.4756 7.43132 15.9481 7.43263Z" fill="url(#paint0_linear_718_3)"/>
<g filter="url(#filter1_i_718_3)">
<path d="M15.9465 2.40328e-06C15.4208 2.40328e-06 14.8997 0.107428 14.4151 0.317708L1.36403 6.41125L1.33203 6.42497C0.931502 6.62691 0.594896 6.93609 0.359712 7.31805C0.124528 7.70002 0 8.13977 0 8.58834C0 9.0369 0.124528 9.47666 0.359712 9.85862C0.594896 10.2406 0.931502 10.5498 1.33203 10.7517L1.36632 10.7677L14.3945 16.8018L14.4174 16.8133C14.9006 17.0234 15.4219 17.1318 15.9488 17.1318C16.4757 17.1318 16.997 17.0234 17.4802 16.8133L30.5335 10.722L30.5655 10.706C30.966 10.504 31.3027 10.1949 31.5378 9.81291C31.773 9.43094 31.8976 8.99119 31.8976 8.54262C31.8976 8.09406 31.773 7.6543 31.5378 7.27234C31.3027 6.89038 30.966 6.5812 30.5655 6.37926L30.5312 6.36326L17.503 0.329136L17.4802 0.317708C16.9962 0.107563 16.4741 -0.000587875 15.9465 2.40328e-06Z" fill="white"/>
</g>
<defs>
<filter id="filter0_i_718_3" x="0" y="13.8652" width="31.8984" height="18.1338" filterUnits="userSpaceOnUse" color-interpolation-filters="sRGB">
<feFlood flood-opacity="0" result="BackgroundImageFix"/>
<feBlend mode="normal" in="SourceGraphic" in2="BackgroundImageFix" result="shape"/>
<feColorMatrix in="SourceAlpha" type="matrix" values="0 0 0 0 0 0 0 0 0 0 0 0 0 0 0 0 0 0 127 0" result="hardAlpha"/>
<feOffset dy="-1"/>
<feGaussianBlur stdDeviation="2"/>
<feComposite in2="hardAlpha" operator="arithmetic" k2="-1" k3="1"/>
<feColorMatrix type="matrix" values="0 0 0 0 0 0 0 0 0 0 0 0 0 0 0 0 0 0 0.25 0"/>
<feBlend mode="normal" in2="shape" result="effect1_innerShadow_718_3"/>
</filter>
<filter id="filter1_i_718_3" x="0" y="-1" width="31.8984" height="18.1318" filterUnits="userSpaceOnUse" color-interpolation-filters="sRGB">
<feFlood flood-opacity="0" result="BackgroundImageFix"/>
<feBlend mode="normal" in="SourceGraphic" in2="BackgroundImageFix" result="shape"/>
<feColorMatrix in="SourceAlpha" type="matrix" values="0 0 0 0 0 0 0 0 0 0 0 0 0 0 0 0 0 0 127 0" result="hardAlpha"/>
<feOffset dy="-1"/>
<feGaussianBlur stdDeviation="2"/>
<feComposite in2="hardAlpha" operator="arithmetic" k2="-1" k3="1"/>
<feColorMatrix type="matrix" values="0 0 0 0 0 0 0 0 0 0 0 0 0 0 0 0 0 0 0.25 0"/>
<feBlend mode="normal" in2="shape" result="effect1_innerShadow_718_3"/>
</filter>
<linearGradient id="paint0_linear_718_3" x1="15.9504" y1="7.43262" x2="15.9504" y2="24.5645" gradientUnits="userSpaceOnUse">
<stop stop-color="#808080"/>
<stop offset="1" stop-color="#646464"/>
</linearGradient>
</defs>
</svg>
