<svg width="36" height="36" viewBox="0 0 36 36" fill="none" xmlns="http://www.w3.org/2000/svg">
<g filter="url(#filter0_i_368_15)">
<path d="M17.9464 2C15.4044 2 12.9222 2.2325 10.5441 2.49821C8.73684 2.70624 7.05351 3.52084 5.76898 4.809C4.48444 6.09715 3.67458 7.78276 3.47164 9.59057C3.217 11.9576 3 14.4221 3 16.9464C3 19.4707 3.217 21.9352 3.47164 24.3023C3.67458 26.1101 4.48444 27.7957 5.76898 29.0839C7.05351 30.372 8.73684 31.1866 10.5441 31.3946C12.9222 31.6604 15.4044 31.8929 17.9464 31.8929C20.4884 31.8929 22.9706 31.6604 25.3488 31.3946C27.156 31.1866 28.8393 30.372 30.1239 29.0839C31.4084 27.7957 32.2183 26.1101 32.4212 24.3023C32.6759 21.9352 32.8929 19.4707 32.8929 16.9464C32.8929 14.4221 32.6759 11.9576 32.4212 9.59057C32.2183 7.78276 31.4084 6.09715 30.1239 4.809C28.8393 3.52084 27.156 2.70624 25.3488 2.49821C22.9706 2.2325 20.4884 2 17.9464 2Z" fill="white"/>
</g>
<g filter="url(#filter1_d_368_15)">
<path fill-rule="evenodd" clip-rule="evenodd" d="M3.15226 13.0445L22.1043 2.17676C23.2026 2.26533 24.2854 2.37604 25.3483 2.49561C25.7978 2.54433 26.234 2.6329 26.6591 2.75469L3.22312 16.1932C3.15313 16.2334 3.07979 16.2675 3.00391 16.295C3.01941 15.199 3.07476 14.114 3.15226 13.0445ZM3.98262 26.3745C3.71888 25.71 3.5468 25.0128 3.47112 24.3019C3.44317 24.0436 3.41586 23.7853 3.38919 23.5269L31.8472 7.36483C32.1417 8.06233 32.3388 8.81076 32.4229 9.59019L32.4849 10.188L3.98262 26.3745ZM14.1152 31.7375C12.9227 31.6447 11.7319 31.5303 10.5435 31.3943C10.1982 31.3564 9.8557 31.2957 9.51834 31.2127L32.8281 17.6391C32.8478 17.6276 32.8677 17.6165 32.8879 17.6059C32.8724 18.7175 32.8171 19.8135 32.7373 20.8963L14.1152 31.7375Z" fill="url(#paint0_linear_368_15)"/>
</g>
<defs>
<filter id="filter0_i_368_15" x="3" y="1" width="29.8926" height="30.8926" filterUnits="userSpaceOnUse" color-interpolation-filters="sRGB">
<feFlood flood-opacity="0" result="BackgroundImageFix"/>
<feBlend mode="normal" in="SourceGraphic" in2="BackgroundImageFix" result="shape"/>
<feColorMatrix in="SourceAlpha" type="matrix" values="0 0 0 0 0 0 0 0 0 0 0 0 0 0 0 0 0 0 127 0" result="hardAlpha"/>
<feOffset dy="-1"/>
<feGaussianBlur stdDeviation="2"/>
<feComposite in2="hardAlpha" operator="arithmetic" k2="-1" k3="1"/>
<feColorMatrix type="matrix" values="0 0 0 0 0 0 0 0 0 0 0 0 0 0 0 0 0 0 0.25 0"/>
<feBlend mode="normal" in2="shape" result="effect1_innerShadow_368_15"/>
</filter>
<filter id="filter1_d_368_15" x="0.00390625" y="0.176758" width="35.8848" height="35.5605" filterUnits="userSpaceOnUse" color-interpolation-filters="sRGB">
<feFlood flood-opacity="0" result="BackgroundImageFix"/>
<feColorMatrix in="SourceAlpha" type="matrix" values="0 0 0 0 0 0 0 0 0 0 0 0 0 0 0 0 0 0 127 0" result="hardAlpha"/>
<feOffset dy="1"/>
<feGaussianBlur stdDeviation="1.5"/>
<feComposite in2="hardAlpha" operator="out"/>
<feColorMatrix type="matrix" values="0 0 0 0 0 0 0 0 0 0 0 0 0 0 0 0 0 0 0.25 0"/>
<feBlend mode="normal" in2="BackgroundImageFix" result="effect1_dropShadow_368_15"/>
<feBlend mode="normal" in="SourceGraphic" in2="effect1_dropShadow_368_15" result="shape"/>
</filter>
<linearGradient id="paint0_linear_368_15" x1="17.9459" y1="2.17676" x2="17.9459" y2="31.7375" gradientUnits="userSpaceOnUse">
<stop stop-color="#808080"/>
<stop offset="1" stop-color="#646464"/>
</linearGradient>
</defs>
</svg>
