<svg width="24" height="25" viewBox="0 0 24 25" fill="none" xmlns="http://www.w3.org/2000/svg">
<path fill-rule="evenodd" clip-rule="evenodd" d="M2.65768 0C1.26793 0 0.0731296 1.07201 0.0294654 2.51254C-0.0972721 6.69357 0.137096 14.7276 1.6822 20.348C2.34959 22.7757 4.65627 24.1071 6.99352 24.1071H16.4431C18.7804 24.1071 21.087 22.7757 21.7545 20.348C23.2995 14.7276 23.5339 6.69357 23.4071 2.51254C23.3636 1.07201 22.1687 0 20.7789 0H2.65768Z" fill="#D4D4D4"/>
<path fill-rule="evenodd" clip-rule="evenodd" d="M6.6786 9.08087C6.43305 9.64624 6.69232 10.3036 7.25769 10.5492C7.82305 10.7947 8.48044 10.5355 8.72598 9.97008C9.27825 8.69853 10.5441 7.81276 12.0144 7.81276C12.8441 7.81276 13.6051 8.0934 14.212 8.56562C14.599 8.86663 14.9224 9.24501 15.159 9.67667C15.3972 10.1112 15.8934 10.3366 16.3774 10.2302C16.8614 10.1238 17.2172 9.71097 17.2512 9.2166C17.3115 8.33594 17.2967 6.60863 17.1679 5.65451C17.1051 5.18754 16.7556 4.81042 16.2948 4.71212C15.834 4.61383 15.3611 4.81553 15.113 5.21615L14.5329 6.15313C13.7705 5.78633 12.9158 5.58062 12.0144 5.58062C9.6236 5.58062 7.57227 7.02322 6.6786 9.08087ZM17.1928 14.5826C17.4383 14.0172 17.179 13.3598 16.6136 13.1143C16.0482 12.8688 15.3909 13.128 15.1453 13.6934C14.5931 14.9649 13.3272 15.8507 11.8569 15.8507C11.0686 15.8507 10.3428 15.5975 9.752 15.1676C9.324 14.8563 8.9676 14.4526 8.71227 13.9868C8.47405 13.5523 7.97785 13.3268 7.49389 13.4333C7.00991 13.5397 6.65407 13.9525 6.62014 14.4469C6.55969 15.3275 6.57462 17.0548 6.70327 18.009C6.76435 18.462 7.09555 18.832 7.53912 18.9428C7.98268 19.0533 8.44889 18.8824 8.71566 18.5112L9.41037 17.5444C10.1545 17.8899 10.9839 18.0828 11.8569 18.0828C14.2477 18.0828 16.299 16.6403 17.1928 14.5826Z" fill="#8F8F8F"/>
</svg>
