<svg width="24" height="24" viewBox="0 0 24 24" fill="none" xmlns="http://www.w3.org/2000/svg">
<g clip-path="url(#clip0_460_40)">
<path fill-rule="evenodd" clip-rule="evenodd" d="M15.2652 1.22349C14.2793 0.43215 13.1531 0.00187078 11.9914 0C10.8277 0 9.69967 0.428408 8.7119 1.2291C5.93061 3.48174 3.39646 6.02342 1.15208 8.81137C-0.40254 10.7308 -0.385703 13.2245 1.15021 15.1421C3.42306 17.9879 6.00637 20.5712 8.8522 22.8441C10.766 24.3781 13.2616 24.3931 15.1829 22.8422C17.9994 20.5752 20.5646 18.0125 22.8344 15.1982C24.4059 13.2507 24.3928 10.7532 22.8344 8.81137C20.5968 6.01255 18.0585 3.46799 15.2652 1.22349Z" fill="#D4D4D4"/>
<path fill-rule="evenodd" clip-rule="evenodd" d="M13.4038 6.24879C13.4038 5.87667 13.256 5.51979 12.9929 5.25666C12.7297 4.99353 12.3729 4.8457 12.0007 4.8457C11.6286 4.8457 11.2717 4.99353 11.0086 5.25666C10.7455 5.51979 10.5977 5.87667 10.5977 6.24879V12.3101C10.5977 12.6822 10.7455 13.0391 11.0086 13.3022C11.2717 13.5654 11.6286 13.7132 12.0007 13.7132C12.3729 13.7132 12.7297 13.5654 12.9929 13.3022C13.256 13.0391 13.4038 12.6822 13.4038 12.3101V6.24879ZM13.4038 16.6522C13.4038 16.2801 13.256 15.9232 12.9929 15.6601C12.7297 15.3969 12.3729 15.2491 12.0007 15.2491C11.6286 15.2491 11.2717 15.3969 11.0086 15.6601C10.7455 15.9232 10.5977 16.2801 10.5977 16.6522V17.7503C10.5977 18.1225 10.7455 18.4793 11.0086 18.7425C11.2717 19.0056 11.6286 19.1534 12.0007 19.1534C12.3729 19.1534 12.7297 19.0056 12.9929 18.7425C13.256 18.4793 13.4038 18.1225 13.4038 17.7503V16.6522Z" fill="#8F8F8F"/>
</g>
<defs>
<clipPath id="clip0_460_40">
<rect width="24" height="24" fill="white"/>
</clipPath>
</defs>
</svg>
