<svg width="21" height="26" viewBox="0 0 21 26" fill="none" xmlns="http://www.w3.org/2000/svg">
<path fill-rule="evenodd" clip-rule="evenodd" d="M11.4238 0.538282C12.3488 0.0343633 13.4438 -0.108536 14.6456 0.0793763C14.797 0.103052 14.9289 0.195682 15.0025 0.330104C15.0761 0.464524 15.0831 0.625505 15.0216 0.765834C14.9919 0.833392 14.9623 0.90205 14.933 0.971803C14.7025 1.51859 14.4557 2.01929 14.2365 2.46369C14.1774 2.58358 14.1203 2.69938 14.0661 2.81086C13.8031 3.35184 13.6155 3.77777 13.5351 4.14165C13.4587 4.48751 13.4899 4.72925 13.6182 4.94021C13.7586 5.17098 14.0602 5.43943 14.685 5.72806C15.3037 6.01389 15.7149 6.06686 15.998 6.01759C16.2636 5.97138 16.4893 5.82231 16.716 5.52534C16.9521 5.21636 17.1629 4.78117 17.394 4.2194C17.4837 4.00111 17.5831 3.74675 17.6886 3.47627C17.833 3.10641 17.989 2.70636 18.1488 2.32711C18.169 2.27942 18.1888 2.23205 18.2079 2.18499C18.2674 2.04007 18.3918 1.93192 18.5437 1.89346C18.6955 1.85499 18.8567 1.89079 18.9777 1.98996C19.862 2.71349 20.4542 3.57758 20.6974 4.5581C20.9406 5.53866 20.823 6.58854 20.3701 7.66325C19.9366 8.69173 19.3049 9.48492 18.4863 9.99929C17.7624 10.454 16.9209 10.6729 15.9966 10.6682C15.3006 12.5033 14.4723 14.2689 13.6318 16.0177C12.9897 15.5399 12.2468 15.301 11.7427 15.301H7.875L8.21662 14.5103C8.53318 13.7776 8.56272 13.0055 8.36509 12.3067C9.00569 10.8442 9.73587 9.25776 10.2194 8.23309C9.57103 7.57496 9.14028 6.82006 8.96036 5.98478C8.75673 5.03958 8.8833 4.03349 9.31671 3.00503C9.78934 1.88354 10.4975 1.04286 11.4238 0.538282Z" fill="url(#paint0_linear_448_123)"/>
<g filter="url(#filter0_i_448_123)">
<path d="M10.5332 25.482C8.20996 25.482 3.85486 25.0503 1.4637 24.6922C0.591414 24.5616 0 23.8103 0 22.9283V17.9811C0 17.6187 0.099682 17.2633 0.288141 16.9538L4.08456 10.7185C4.44277 10.1302 5.12848 9.82597 5.80503 9.95519C7.88117 10.3518 9.05576 12.5693 8.21741 14.5096L7.87581 15.3002H11.7435C12.8069 15.3002 14.9338 16.3636 14.9338 18.4905C14.9338 20.6172 12.7953 25.482 10.5332 25.482Z" fill="white"/>
</g>
<defs>
<filter id="filter0_i_448_123" x="0" y="8.92578" width="14.9336" height="16.5566" filterUnits="userSpaceOnUse" color-interpolation-filters="sRGB">
<feFlood flood-opacity="0" result="BackgroundImageFix"/>
<feBlend mode="normal" in="SourceGraphic" in2="BackgroundImageFix" result="shape"/>
<feColorMatrix in="SourceAlpha" type="matrix" values="0 0 0 0 0 0 0 0 0 0 0 0 0 0 0 0 0 0 127 0" result="hardAlpha"/>
<feOffset dy="-1"/>
<feGaussianBlur stdDeviation="2"/>
<feComposite in2="hardAlpha" operator="arithmetic" k2="-1" k3="1"/>
<feColorMatrix type="matrix" values="0 0 0 0 0.471154 0 0 0 0 0.26593 0 0 0 0 0.129114 0 0 0 0.25 0"/>
<feBlend mode="normal" in2="shape" result="effect1_innerShadow_448_123"/>
</filter>
<linearGradient id="paint0_linear_448_123" x1="14.3482" y1="0" x2="14.3482" y2="16.0177" gradientUnits="userSpaceOnUse">
<stop stop-color="#EA843A"/>
<stop offset="1" stop-color="#CF702A"/>
</linearGradient>
</defs>
</svg>
