<?xml version="1.0" encoding="UTF-8"?>
<svg version="1.1" xmlns="http://www.w3.org/2000/svg" width="30" height="30">
<path d="M0 0 C1.32 0 2.64 0 4 0 C4 1.32 4 2.64 4 4 C5.65 3.01 7.3 2.02 9 1 C9.66 1.99 10.32 2.98 11 4 C10.57847656 4.39832031 10.15695313 4.79664063 9.72265625 5.20703125 C9.17480469 5.73683594 8.62695312 6.26664062 8.0625 6.8125 C7.24458984 7.59560547 7.24458984 7.59560547 6.41015625 8.39453125 C4.76480908 10.05812198 4.76480908 10.05812198 4 13 C7.60513403 10.93992341 10.80331012 8.6486859 14 6 C14.99 7.485 14.99 7.485 16 9 C15.01 10.32 14.02 11.64 13 13 C14.32 13 15.64 13 17 13 C17 14.32 17 15.64 17 17 C15.68 17 14.36 17 13 17 C13.99 18.65 14.98 20.3 16 22 C15.01 22.66 14.02 23.32 13 24 C12.60167969 23.57847656 12.20335938 23.15695313 11.79296875 22.72265625 C11.26316406 22.17480469 10.73335937 21.62695312 10.1875 21.0625 C9.66542969 20.51722656 9.14335937 19.97195312 8.60546875 19.41015625 C6.94187802 17.76480908 6.94187802 17.76480908 4 17 C6.06007659 20.60513403 8.3513141 23.80331012 11 27 C10.01 27.66 9.02 28.32 8 29 C6.68 28.01 5.36 27.02 4 26 C4 27.32 4 28.64 4 30 C2.68 30 1.36 30 0 30 C0 28.68 0 27.36 0 26 C-1.65 26.99 -3.3 27.98 -5 29 C-5.66 28.01 -6.32 27.02 -7 26 C-6.57847656 25.60167969 -6.15695313 25.20335938 -5.72265625 24.79296875 C-5.17480469 24.26316406 -4.62695312 23.73335937 -4.0625 23.1875 C-3.51722656 22.66542969 -2.97195313 22.14335937 -2.41015625 21.60546875 C-0.76480908 19.94187802 -0.76480908 19.94187802 0 17 C-3.60513403 19.06007659 -6.80331012 21.3513141 -10 24 C-10.66 23.01 -11.32 22.02 -12 21 C-11.01 19.68 -10.02 18.36 -9 17 C-10.32 17 -11.64 17 -13 17 C-13 15.68 -13 14.36 -13 13 C-11.68 13 -10.36 13 -9 13 C-9.99 11.35 -10.98 9.7 -12 8 C-11.01 7.34 -10.02 6.68 -9 6 C-8.40251953 6.63228516 -8.40251953 6.63228516 -7.79296875 7.27734375 C-7.26316406 7.82519531 -6.73335938 8.37304688 -6.1875 8.9375 C-5.40439453 9.75541016 -5.40439453 9.75541016 -4.60546875 10.58984375 C-2.94187802 12.23519092 -2.94187802 12.23519092 0 13 C-2.06007659 9.39486597 -4.3513141 6.19668988 -7 3 C-6.01 2.34 -5.02 1.68 -4 1 C-2.68 1.99 -1.36 2.98 0 4 C0 2.68 0 1.36 0 0 Z " fill="#000000" transform="translate(13,0)"/>
</svg>
